<svg xmlns="http://www.w3.org/2000/svg" viewBox="0 0 88 88"><title>Artboard-39</title><g id="Bank"><path d="M73,45a1,1,0,0,0,1-1V39h3a1,1,0,0,0,1-1V33h4a1,1,0,0,0,1-1V22a1.0008,1.0008,0,0,0-.5342-.8848l-38-20a.9953.9953,0,0,0-.9316,0l-38,20A1.0008,1.0008,0,0,0,5,22V32a1,1,0,0,0,1,1h4v5a1,1,0,0,0,1,1h3v5a1,1,0,0,0,1,1h2V67H15a1,1,0,0,0-1,1v5H11a1,1,0,0,0-1,1v5H6a1,1,0,0,0-1,1v6a1,1,0,0,0,1,1H82a1,1,0,0,0,1-1V80a1,1,0,0,0-1-1H78V74a1,1,0,0,0-1-1H74V68a1,1,0,0,0-1-1H71V45Zm-1-2H62V39H72ZM61,67a1,1,0,0,0-1,1v5H51V68a1,1,0,0,0-1-1H48V45h2a1,1,0,0,0,1-1V39h9v5a1,1,0,0,0,1,1h2V67ZM28,73V68a1,1,0,0,0-1-1H25V45h2a1,1,0,0,0,1-1V39h9v5a1,1,0,0,0,1,1h2V67H38a1,1,0,0,0-1,1v5Zm18-6H42V45h4Zm1-24H39V39H49v4ZM39,69H49v4H39ZM7,22.6035,44,3.13,81,22.6035V31H7ZM12,33H76v4H12Zm4,6H26v4H16Zm3,6h4V67H19ZM16,69H26v4H16ZM81,85H7V81H81Zm-5-6H12V75H76Zm-4-6H62V69H72Zm-3-6H65V45h4Z" style="fill:#202021"/><path d="M44.1455,21h-.291A.8561.8561,0,0,1,43,20.1455a1,1,0,0,0-2,0,2.8484,2.8484,0,0,0,2,2.7094V23a1,1,0,0,0,2,0v-.1451a2.8436,2.8436,0,0,0,.4219-5.2621l-1.9492-.9746A.854.854,0,0,1,43.8545,15h.291A.8561.8561,0,0,1,45,15.8545a1,1,0,1,0,2,0,2.8484,2.8484,0,0,0-2-2.7094V13a1,1,0,0,0-2,0v.1451a2.8436,2.8436,0,0,0-.4219,5.2621l1.9492.9746A.854.854,0,0,1,44.1455,21Z" style="fill:#202021"/><path d="M44,28A10,10,0,1,0,34,18,10.0117,10.0117,0,0,0,44,28Zm0-18a8,8,0,1,1-8,8A8.0092,8.0092,0,0,1,44,10Z" style="fill:#202021"/></g></svg>