<svg width="33" height="32" viewBox="0 0 33 32" fill="none" xmlns="http://www.w3.org/2000/svg">
<g clip-path="url(#clip0_61_1939)">
<path d="M24.7286 12.1001L25.2012 13.0452C25.8738 14.3921 25.2256 16.0554 23.4842 16.5396C23.4621 16.5469 21.0501 17.1944 20.3176 15.0002L19.6115 12.8794L21.6207 10.8694L16.6628 3.43359L11.705 10.8694L13.7142 12.8794L13.0081 15.0002C12.2001 17.4211 8.87482 16.8512 8.09064 15.144C7.78113 14.4719 7.79394 13.7073 8.12452 13.0452L8.59613 12.101L0.666504 9.27049L4.47256 23.8783L6.34799 25.7538H16.6628H26.9777L28.8531 23.8783L32.6665 9.27143L24.7286 12.1001Z" fill="#FED843"/>
<path d="M28.8534 23.8783L32.6667 9.27143L24.7289 12.1001L25.2014 13.0452C25.874 14.3921 25.2258 16.0554 23.4844 16.5396C23.4624 16.5469 21.0503 17.1944 20.3178 15.0002L19.6118 12.8794L21.6209 10.8694L16.6631 3.43359V25.7538H26.9779L28.8534 23.8783Z" fill="#FABE2C"/>
<path d="M16.6629 23.8779H4.47266V28.5665H16.6629H28.8532V23.8779H16.6629Z" fill="#FABE2C"/>
<path d="M16.6631 23.8779H28.8534V28.5665H16.6631V23.8779Z" fill="#FF9100"/>
<path d="M11.9707 23.8779L16.6586 19.1901L21.3464 23.8779L16.6586 28.5658L11.9707 23.8779Z" fill="#FABE2C"/>
<path d="M16.6631 19.1895V28.5666L21.3517 23.878L16.6631 19.1895Z" fill="#FF9100"/>
</g>
<defs>
<clipPath id="clip0_61_1939">
<rect width="32" height="32" fill="white" transform="translate(0.666504)"/>
</clipPath>
</defs>
</svg>
