<svg width="48" height="48" viewBox="0 0 48 48" fill="none" xmlns="http://www.w3.org/2000/svg">
<g clip-path="url(#clip0_61_653)">
<path d="M24 48C37.2548 48 48 37.2548 48 24C48 10.7452 37.2548 0 24 0C10.7452 0 0 10.7452 0 24C0 37.2548 10.7452 48 24 48Z" fill="url(#paint0_linear_61_653)"/>
<path d="M23.9976 30.5374L15.9336 25.7734L23.9976 37.1398L32.0688 25.7734L23.9976 30.5374Z" fill="white"/>
<path d="M32.064 24.2452L23.9976 29.0116L15.9312 24.2452L23.9976 10.8604L32.064 24.2452Z" fill="white"/>
<path d="M32.064 24.2452L23.9976 20.578V10.8604L32.064 24.2452Z" fill="#C1CCF7"/>
<path d="M32.0688 25.7744L23.9976 37.1408V30.5384L32.0688 25.7744Z" fill="#C1CCF7"/>
<path d="M23.9976 20.5781V29.0117L15.9336 24.2453L23.9976 20.5781Z" fill="#C1CCF7"/>
<path d="M32.064 24.2443L23.9976 29.0107V20.5771L32.064 24.2443Z" fill="#8198EE"/>
</g>
<defs>
<linearGradient id="paint0_linear_61_653" x1="24" y1="48" x2="24" y2="0" gradientUnits="userSpaceOnUse">
<stop stop-color="#3E5EBD"/>
<stop offset="1" stop-color="#94AEFF"/>
</linearGradient>
<clipPath id="clip0_61_653">
<rect width="48" height="48" fill="white"/>
</clipPath>
</defs>
</svg>
