<svg width="60" height="60" viewBox="0 0 60 60" fill="none" xmlns="http://www.w3.org/2000/svg">
<g clip-path="url(#clip0_56_2181)">
<path d="M37.461 30.4939L33.1387 37.4679L21.2132 49.3934H18.5616L15.9098 44.0902L10.6066 41.4384V38.7868L22.5321 26.8613L29.506 22.539L34.8094 14.5841L49.3933 0H60V10.6066L45.4159 25.1906L37.461 30.4939Z" fill="#8DC6FF"/>
<path d="M49.3891 5.29785L54.6916 10.6004L52.0403 13.2516L46.7379 7.9491L49.3891 5.29785Z" fill="#4DA6FF"/>
<path d="M18.5616 49.3934L15.9098 44.0902L10.6066 41.4385H2.6516L0 49.3934H10.6066V60L18.5616 57.3484V49.3934Z" fill="#4DA6FF"/>
<path d="M34.8094 14.5845L29.506 22.5394L22.5321 26.8616L1.6637 10.607L6.96702 5.30371L18.8994 9.28117L20.2253 13.2586L26.8543 11.9328L34.8094 14.5845Z" fill="#4DA6FF"/>
<path d="M54.6967 53.0328L49.3933 58.3361L33.1387 37.4677L37.461 30.4937L45.4159 25.1904L48.0676 33.1455L46.7417 39.7745L50.7192 41.1004L54.6967 53.0328Z" fill="#4DA6FF"/>
<path d="M30.8318 7.95469L26.8543 11.9321L20.2253 13.258L18.8994 9.28055L25.5286 2.65137L30.8318 7.95469Z" fill="#8DC6FF"/>
<path d="M57.3484 34.4712L50.7192 41.1004L46.7418 39.7745L48.0676 33.1454L52.0451 29.168L57.3484 34.4712Z" fill="#8DC6FF"/>
<path d="M50.7192 41.1004L49.3933 42.4263C47.9349 43.8847 45.5484 43.8847 44.09 42.4263C42.6316 40.9679 42.6316 38.5814 44.09 37.123L48.0675 33.1455L50.7192 41.1004Z" fill="#007FFF"/>
<path d="M26.8543 11.932L22.8769 15.9095C21.4185 17.3679 19.0319 17.3679 17.5735 15.9095C16.1151 14.4511 16.1151 12.0645 17.5735 10.6061L18.8994 9.28027L26.8543 11.932Z" fill="#007FFF"/>
<path d="M38.7868 15.9097L25.5286 29.1681L22.5321 26.8611L34.8094 14.584L38.7868 15.9097Z" fill="#007FFF"/>
<path d="M45.4159 25.1904L33.1387 37.4676L30.8318 34.4711L44.0901 21.2129L45.4159 25.1904Z" fill="#007FFF"/>
<path d="M10.6066 41.4385H18.5615V49.3934H10.6066V41.4385Z" fill="#007FFF"/>
</g>
<defs>
<clipPath id="clip0_56_2181">
<rect width="60" height="60" fill="white"/>
</clipPath>
</defs>
</svg>
