<svg width="54" height="60" viewBox="0 0 54 60" fill="none" xmlns="http://www.w3.org/2000/svg">
<path d="M53.25 37.5V60H0.75V37.5L27 41.25L53.25 37.5Z" fill="#4DA6FF"/>
<path d="M27 0C20.7844 0 15.75 5.03437 15.75 11.25C15.75 13.8656 16.6406 16.2656 18.1313 18.1781L18.9645 19.2891L23.061 20.7429L21.3738 22.5L24.1863 26.25L27 28.8281L29.8137 26.25L32.6262 22.5L31.0321 20.8399L35.0355 19.2891L35.8687 18.1781C37.3594 16.2656 38.25 13.8656 38.25 11.25C38.25 5.03437 33.2156 0 27 0ZM27 7.5C29.0707 7.5 30.75 9.1793 30.75 11.25C30.75 13.3207 29.0707 15 27 15C24.9293 15 23.25 13.3207 23.25 11.25C23.25 9.1793 24.9293 7.5 27 7.5Z" fill="#4DA6FF"/>
<path d="M38.25 26.25V24.375C38.25 22.1262 36.9375 20.1902 35.0355 19.2891L31.0321 20.8399L32.6262 22.5C33.6762 22.5012 34.5 23.325 34.5 24.375V26.25H29.8137L27 28.8281L24.1863 26.25H19.5V24.375C19.5 23.325 20.3238 22.5012 21.3738 22.5L23.061 20.7429L18.9645 19.2891C17.0625 20.1902 15.75 22.1262 15.75 24.375V26.25H0.75V37.5L27 41.25L53.25 37.5V26.25H38.25Z" fill="#8DC6FF"/>
<path d="M35.0356 19.2891L32.6262 22.5H21.3738L18.9645 19.2891C19.6945 18.9434 20.5113 18.75 21.375 18.75H32.625C33.4887 18.75 34.3055 18.9434 35.0356 19.2891Z" fill="#007FFF"/>
<path d="M29.8137 26.25L27 30L24.1863 26.25H29.8137Z" fill="#007FFF"/>
<path d="M53.25 37.5C53.25 41.6249 49.8749 45 45.75 45H30.75V48.75H23.25V45H8.25C4.12512 45 0.75 41.6249 0.75 37.5H53.25Z" fill="#007FFF"/>
</svg>
