<svg width="80" height="80" viewBox="0 0 80 80" fill="none" xmlns="http://www.w3.org/2000/svg">
<path d="M40 65C25.4434 60.1478 15.625 46.5255 15.625 31.1816V8.125L40 0L64.375 8.125V31.1816C64.375 46.5255 54.5566 60.1478 40 65Z" fill="#4DA6FF"/>
<path d="M37.3224 33.5346L30.2513 26.4637L26.7158 29.9991L33.7869 37.0702L37.3224 40.6057L40.8579 37.0702L55 22.928L51.4646 19.3926L37.3224 33.5346Z" fill="#8DC6FF"/>
<path d="M15 55H65V70H15V55Z" fill="#8DC6FF"/>
<path d="M24.7496 55C28.7798 59.4711 34.0143 63.0047 39.9999 65C45.9857 63.0047 51.2201 59.4711 55.2503 55H24.7496Z" fill="#007FFF"/>
<path d="M80.0001 65H50.0394V80H80.0001L75.0001 72.5L80.0001 65Z" fill="#4DA6FF"/>
<path d="M29.9606 80V65H0L5 72.5L0 80H29.9606Z" fill="#4DA6FF"/>
<path d="M15 65H29.9606V70H15V65Z" fill="#007FFF"/>
<path d="M50.0394 65H65.0001V70H50.0394V65Z" fill="#007FFF"/>
</svg>
