<svg width="58" height="60" viewBox="0 0 58 60" fill="none" xmlns="http://www.w3.org/2000/svg">
<path d="M28.559 4.39336L30.4719 2.4804C33.1137 -0.161362 37.3674 -0.804722 40.399 1.3786C44.2621 4.16075 44.5832 9.58231 41.3623 12.8032L28.559 25.6066L16.0395 13.087C13.3977 10.4453 12.7544 6.19161 14.9377 3.15997C17.7198 -0.70312 23.1414 -1.02421 26.3623 2.19668L28.559 4.39336Z" fill="#4DA6FF"/>
<path d="M28.559 41.25C31.6656 41.25 34.184 38.7316 34.184 35.625C34.184 32.5184 31.6656 30 28.559 30C25.4524 30 22.934 32.5184 22.934 35.625C22.934 38.7316 25.4524 41.25 28.559 41.25Z" fill="#4DA6FF"/>
<path d="M53.8162 26.25C55.8872 26.25 57.5662 24.5711 57.5662 22.5C57.5662 20.4289 55.8872 18.75 53.8162 18.75C51.7451 18.75 50.0662 20.4289 50.0662 22.5C50.0662 24.5711 51.7451 26.25 53.8162 26.25Z" fill="#8DC6FF"/>
<path d="M56.684 48.75V60H37.934L35.2341 44.025C36.9965 40.1624 40.8964 37.5 45.434 37.5C48.5466 37.5 51.3591 38.7749 53.384 40.8C55.409 42.8249 56.684 45.6374 56.684 48.75Z" fill="#8DC6FF"/>
<path d="M35.234 44.025L34.1839 60H22.9339L21.8838 44.025C23.6089 42.2999 25.9714 41.25 28.5589 41.25C31.1464 41.25 33.5089 42.2999 35.1965 43.9874L35.234 44.025Z" fill="#4DA6FF"/>
<path d="M45.434 37.5C49.5761 37.5 52.934 34.1421 52.934 30C52.934 25.8579 49.5761 22.5 45.434 22.5C41.2918 22.5 37.934 25.8579 37.934 30C37.934 34.1421 41.2918 37.5 45.434 37.5Z" fill="#8DC6FF"/>
<path d="M21.8838 44.025L19.184 60H0.43396V48.75C0.43396 42.5249 5.45908 37.5 11.684 37.5C14.7966 37.5 17.6091 38.7749 19.634 40.8C20.5715 41.7375 21.3216 42.8249 21.8838 44.025Z" fill="#8DC6FF"/>
<path d="M11.684 37.5C15.8261 37.5 19.184 34.1421 19.184 30C19.184 25.8579 15.8261 22.5 11.684 22.5C7.54182 22.5 4.18396 25.8579 4.18396 30C4.18396 34.1421 7.54182 37.5 11.684 37.5Z" fill="#8DC6FF"/>
<path d="M37.934 50.6254V60.0004H34.184V48.7504C34.184 47.0629 34.5588 45.4504 35.2341 44.0254C36.8838 45.7129 37.934 48.0379 37.934 50.6254Z" fill="#0080FF"/>
<path d="M22.934 48.7504V60.0004H19.184V50.6254C19.184 48.0379 20.2341 45.7129 21.8838 44.0254C22.5591 45.4504 22.934 47.0629 22.934 48.7504Z" fill="#0080FF"/>
</svg>
