<svg width="60" height="60" viewBox="0 0 60 60" fill="none" xmlns="http://www.w3.org/2000/svg">
<mask id="mask0_56_2466" style="mask-type:luminance" maskUnits="userSpaceOnUse" x="0" y="16" width="47" height="44">
<path d="M45.6536 37.5459L25.5718 17.4643C24.1989 16.0913 21.9729 16.0913 20.6 17.4643L0.518325 37.5459C-0.58898 38.6533 0.195356 40.5467 1.76133 40.5467H5.50782V58.242C5.50782 59.2128 6.29485 59.9998 7.26563 59.9998H15.791C16.7618 59.9998 17.5488 59.2128 17.5488 58.242V45.9373C17.5488 44.9666 18.3359 44.1795 19.3066 44.1795H26.8652C27.836 44.1795 28.6231 44.9666 28.6231 45.9373V58.242C28.6231 59.2128 29.4101 59.9998 30.3809 59.9998H38.9063C39.877 59.9998 40.6641 59.2128 40.6641 58.242V40.5467H44.4105C45.9766 40.5467 46.7609 38.6533 45.6536 37.5459Z" fill="white"/>
</mask>
<g mask="url(#mask0_56_2466)">
<path d="M52.9688 19.4531H44.1797C42.238 19.4531 40.6641 17.8792 40.6641 15.9375V7.03125C40.6641 3.14801 37.5161 0 33.6328 0H24.8438C22.9021 0 21.3281 1.57395 21.3281 3.51562V49.4531C21.3281 51.3948 22.9021 52.9688 24.8438 52.9688H56.4844C58.4261 52.9688 60 51.3948 60 49.4531V26.4844C60 22.6011 56.852 19.4531 52.9688 19.4531Z" fill="url(#paint0_radial_56_2466)"/>
</g>
<path d="M38.6182 2.07324V21.5264H57.9535C57.9541 21.5264 38.6182 2.07324 38.6182 2.07324Z" fill="url(#paint1_radial_56_2466)"/>
<path d="M28.623 45.9375C28.623 44.9667 27.836 44.1797 26.8652 44.1797H21.3281V49.4531C21.3281 51.3948 22.9021 52.9688 24.8438 52.9688H28.623V45.9375Z" fill="url(#paint2_radial_56_2466)"/>
<path d="M52.9688 19.4531H44.1797C42.238 19.4531 40.6641 17.8792 40.6641 15.9375V7.03125C40.6641 3.14801 37.5161 0 33.6328 0H24.8438C22.9021 0 21.3281 1.57395 21.3281 3.51562V16.9055C22.6726 16.1282 24.4215 16.314 25.5718 17.4645L45.6534 37.5461C46.7609 38.6534 45.9765 40.5469 44.4104 40.5469H40.6641V52.9688H56.4844C58.4261 52.9688 60 51.3948 60 49.4531V26.4844C60 22.6011 56.852 19.4531 52.9688 19.4531Z" fill="url(#paint3_radial_56_2466)"/>
<g opacity="0.55">
<path d="M45.6536 37.5459L25.5718 17.4643C24.1989 16.0913 21.9729 16.0913 20.6 17.4643L0.518325 37.5459C-0.58898 38.6533 0.195356 40.5467 1.76133 40.5467H5.50782V58.242C5.50782 59.2128 6.29485 59.9998 7.26563 59.9998H15.791C16.7618 59.9998 17.5488 59.2128 17.5488 58.242V45.9373C17.5488 44.9666 18.3359 44.1795 19.3066 44.1795H26.8652C27.836 44.1795 28.6231 44.9666 28.6231 45.9373V58.242C28.6231 59.2128 29.4101 59.9998 30.3809 59.9998H38.9063C39.877 59.9998 40.6641 59.2128 40.6641 58.242V40.5467H44.4105C45.9766 40.5467 46.7609 38.6533 45.6536 37.5459Z" fill="url(#paint4_radial_56_2466)"/>
</g>
<path d="M45.6536 37.5459L25.5718 17.4643C24.1989 16.0913 21.9729 16.0913 20.6 17.4643L0.518325 37.5459C-0.58898 38.6533 0.195356 40.5467 1.76133 40.5467H5.50782V58.242C5.50782 59.2128 6.29485 59.9998 7.26563 59.9998H15.791C16.7618 59.9998 17.5488 59.2128 17.5488 58.242V45.9373C17.5488 44.9666 18.3359 44.1795 19.3066 44.1795H26.8652C27.836 44.1795 28.6231 44.9666 28.6231 45.9373V58.242C28.6231 59.2128 29.4101 59.9998 30.3809 59.9998H38.9063C39.877 59.9998 40.6641 59.2128 40.6641 58.242V40.5467H44.4105C45.9766 40.5467 46.7609 38.6533 45.6536 37.5459Z" fill="url(#paint5_radial_56_2466)"/>
<path d="M23.0859 16.7861C23.9311 16.7861 24.7256 17.1152 25.3233 17.7129L45.4049 37.7945C45.8947 38.2843 45.8836 38.9073 45.7097 39.327C45.5359 39.7467 45.1032 40.1952 44.4104 40.1952H40.6641C40.4699 40.1952 40.3125 40.3525 40.3125 40.5467V58.242C40.3125 59.0175 39.6817 59.6483 38.9063 59.6483H30.3809C29.6054 59.6483 28.9746 59.0175 28.9746 58.242V45.9373C28.9746 44.7743 28.0283 43.828 26.8652 43.828H19.3066C18.1436 43.828 17.1973 44.7743 17.1973 45.9373V58.242C17.1973 59.0175 16.5665 59.6483 15.791 59.6483H7.26563C6.4902 59.6483 5.85938 59.0175 5.85938 58.242V40.5467C5.85938 40.3525 5.702 40.1952 5.50782 40.1952H1.76133C1.06852 40.1952 0.635981 39.7467 0.462075 39.327C0.288286 38.9074 0.277036 38.2844 0.76688 37.7945L20.8485 17.7129C21.4463 17.1153 22.2408 16.7861 23.0859 16.7861ZM23.0859 16.4346C22.1862 16.4346 21.2865 16.7778 20.6 17.4643L0.518325 37.5459C-0.58898 38.6533 0.195356 40.5467 1.76133 40.5467H5.50782V58.242C5.50782 59.2128 6.29485 59.9998 7.26563 59.9998H15.791C16.7618 59.9998 17.5488 59.2128 17.5488 58.242V45.9373C17.5488 44.9666 18.3359 44.1795 19.3066 44.1795H26.8652C27.836 44.1795 28.6231 44.9666 28.6231 45.9373V58.242C28.6231 59.2128 29.4101 59.9998 30.3809 59.9998H38.9063C39.877 59.9998 40.6641 59.2128 40.6641 58.242V40.5467H44.4105C45.9766 40.5467 46.7609 38.6533 45.6536 37.5459L25.5718 17.4643C24.8854 16.7778 23.9857 16.4346 23.0859 16.4346Z" fill="url(#paint6_linear_56_2466)"/>
<defs>
<radialGradient id="paint0_radial_56_2466" cx="0" cy="0" r="1" gradientUnits="userSpaceOnUse" gradientTransform="translate(40.847 29.8828) scale(39.2854)">
<stop stop-color="#59E3FF"/>
<stop offset="0.5024" stop-color="#34AAFF"/>
<stop offset="1" stop-color="#0000D9"/>
</radialGradient>
<radialGradient id="paint1_radial_56_2466" cx="0" cy="0" r="1" gradientUnits="userSpaceOnUse" gradientTransform="translate(42.3518 18.1047) scale(38.4121 38.4121)">
<stop stop-color="#59E3FF"/>
<stop offset="0.5024" stop-color="#34AAFF"/>
<stop offset="1" stop-color="#0000D9"/>
</radialGradient>
<radialGradient id="paint2_radial_56_2466" cx="0" cy="0" r="1" gradientUnits="userSpaceOnUse" gradientTransform="translate(40.7542 29.8828) scale(39.5924)">
<stop stop-color="#59E3FF"/>
<stop offset="0.5024" stop-color="#34AAFF"/>
<stop offset="1" stop-color="#0000D9"/>
</radialGradient>
<radialGradient id="paint3_radial_56_2466" cx="0" cy="0" r="1" gradientUnits="userSpaceOnUse" gradientTransform="translate(40.7542 29.8828) scale(39.5924)">
<stop stop-color="#59E3FF"/>
<stop offset="0.5024" stop-color="#34AAFF"/>
<stop offset="1" stop-color="#0000D9"/>
</radialGradient>
<radialGradient id="paint4_radial_56_2466" cx="0" cy="0" r="1" gradientUnits="userSpaceOnUse" gradientTransform="translate(23.0859 38.2173) scale(22.4438 22.4437)">
<stop stop-color="#59E3FF"/>
<stop offset="1" stop-color="#01FFD5"/>
</radialGradient>
<radialGradient id="paint5_radial_56_2466" cx="0" cy="0" r="1" gradientUnits="userSpaceOnUse" gradientTransform="translate(39.59 18.7461) scale(34.6713 34.6713)">
<stop stop-color="white"/>
<stop offset="0.5379" stop-color="#EEFEFF" stop-opacity="0.462"/>
<stop offset="1" stop-color="#E5FEFF" stop-opacity="0"/>
</radialGradient>
<linearGradient id="paint6_linear_56_2466" x1="-0.0923619" y1="53.857" x2="21.4216" y2="14.7191" gradientUnits="userSpaceOnUse">
<stop stop-color="#B8F3FF" stop-opacity="0"/>
<stop offset="0.0882" stop-color="#B8F3FF" stop-opacity="0.088"/>
<stop offset="0.232" stop-color="#B8F3FF" stop-opacity="0.232"/>
<stop offset="0.4137" stop-color="#B8F3FF" stop-opacity="0.414"/>
<stop offset="0.6261" stop-color="#B8F3FF" stop-opacity="0.626"/>
<stop offset="0.8616" stop-color="#D5F8FF" stop-opacity="0.862"/>
<stop offset="1" stop-color="#F2F9FF"/>
</linearGradient>
</defs>
</svg>
