<svg width="60" height="60" viewBox="0 0 60 60" fill="none" xmlns="http://www.w3.org/2000/svg">
<g clip-path="url(#clip0_56_2216)">
<path d="M59.9625 3.78418V26.2701H58.0887L50.5933 24.3963L43.098 26.2701H14.9906V3.78418H59.9625Z" fill="#8DC6FF"/>
<path d="M60 52.2037L42.0112 56.1012C39.9125 56.4011 37.7764 56.1012 36.2021 55.3519L14.9906 48.7559H11.243L7.4953 41.2605L11.243 30.0176H26.2336C26.8331 30.0176 27.3579 30.1674 27.92 30.4298L36.2022 34.5521C39.9127 36.3887 41.4115 40.6983 39.6127 44.4085C38.3009 43.809 35.1905 42.4223 26.2336 37.9251C25.5208 37.497 24.2018 37.738 23.7228 38.7495C23.3479 39.4616 23.4604 40.7359 24.5471 41.2981C37.1393 47.5942 37.6639 47.6689 38.6009 48.0439C39.1631 48.2688 40.6247 48.7935 42.6859 48.4186L51.4553 46.395C55.4277 45.533 59.363 48.1561 60 52.2037Z" fill="#8DC6FF"/>
<path d="M11.243 48.7568V52.5045H0V30.0186H3.74766L7.49532 41.2615L11.243 48.7568Z" fill="#4DA6FF"/>
<path d="M37.4766 22.5229C41.6161 22.5229 44.9719 19.1671 44.9719 15.0275C44.9719 10.888 41.6161 7.53223 37.4766 7.53223C33.337 7.53223 29.9813 10.888 29.9813 15.0275C29.9813 19.1671 33.337 22.5229 37.4766 22.5229Z" fill="#4DA6FF"/>
<path d="M18.7383 13.1533H26.2336V16.901H18.7383V13.1533Z" fill="#4DA6FF"/>
<path d="M48.7195 13.1533H56.2149V16.901H48.7195V13.1533Z" fill="#4DA6FF"/>
<path d="M58.0887 26.2703L50.5934 24.3965L43.0981 26.2703C41.9363 27.8067 41.2242 29.7931 41.2242 31.8918C41.2242 37.0636 45.4216 41.2609 50.5934 41.2609C55.7652 41.2609 59.9625 37.0636 59.9625 31.8918C59.9625 29.7931 59.2505 27.8067 58.0887 26.2703ZM52.4672 33.7656H48.7196V30.018H52.4672V33.7656Z" fill="#4DA6FF"/>
<path d="M58.0887 26.2701H43.0981C44.8221 23.984 47.5203 22.5225 50.5934 22.5225C53.6665 22.5225 56.3647 23.9842 58.0887 26.2701Z" fill="#007FFF"/>
<path d="M3.74768 30.0176H11.243V48.7559H3.74768V30.0176Z" fill="#007FFF"/>
</g>
<defs>
<clipPath id="clip0_56_2216">
<rect width="60" height="60" fill="white"/>
</clipPath>
</defs>
</svg>
