<svg width="76" height="80" viewBox="0 0 76 80" fill="none" xmlns="http://www.w3.org/2000/svg">
<path d="M15.5 80H0.5V45H20.5L15.5 80Z" fill="#4DA6FF"/>
<path d="M75.5 80H60.5L55.5 45H75.5V80Z" fill="#4DA6FF"/>
<path d="M10.5 0H65.5V15H10.5V0Z" fill="#4DA6FF"/>
<path d="M60.5 15V80H45.5L39.0938 72.5L30.5 80H15.5V15L38 10L60.5 15Z" fill="#8DC6FF"/>
<path d="M15.5 10H60.5V15H15.5V10Z" fill="#007FFF"/>
<path d="M25.5 25H30.5V30H25.5V25Z" fill="#4DA6FF"/>
<path d="M35.5 25H40.5V30H35.5V25Z" fill="#4DA6FF"/>
<path d="M45.5 25H50.5V30H45.5V25Z" fill="#4DA6FF"/>
<path d="M25.5 35H30.5V40H25.5V35Z" fill="#4DA6FF"/>
<path d="M35.5 35H40.5V40H35.5V35Z" fill="#4DA6FF"/>
<path d="M45.5 35H50.5V40H45.5V35Z" fill="#4DA6FF"/>
<path d="M25.5 45H30.5V50H25.5V45Z" fill="#4DA6FF"/>
<path d="M5.5 55H10.5V60H5.5V55Z" fill="#8DC6FF"/>
<path d="M5.5 65H10.5V70H5.5V65Z" fill="#8DC6FF"/>
<path d="M65.5 55H70.5V60H65.5V55Z" fill="#8DC6FF"/>
<path d="M65.5 65H70.5V70H65.5V65Z" fill="#8DC6FF"/>
<path d="M35.5 45H40.5V50H35.5V45Z" fill="#4DA6FF"/>
<path d="M45.5 45H50.5V50H45.5V45Z" fill="#4DA6FF"/>
<path d="M30.5 60H45.5V80H30.5V60Z" fill="#4DA6FF"/>
</svg>
