<svg width="60" height="58" viewBox="0 0 60 58" fill="none" xmlns="http://www.w3.org/2000/svg">
<path d="M60 19.625L30 34.625L0 19.625L30 0.875L60 19.625Z" fill="#4DA6FF"/>
<path d="M45 23.375V27.125L30 34.625L15 27.125V23.375H45Z" fill="#0080FF"/>
<path d="M45 27.125V35.9374L30 43.4374L15 35.9374V27.125L30 34.625L45 27.125Z" fill="#8DC6FF"/>
<path d="M56.25 21.5V46.4C55.6874 46.0624 55.05 45.875 54.375 45.875C53.7 45.875 53.0626 46.0625 52.5 46.4V23.375L56.25 21.5Z" fill="#8DC6FF"/>
<path d="M58.125 49.625V57.125H50.625V49.625C50.625 48.2375 51.375 47.0375 52.5 46.4C53.0626 46.0624 53.7 45.875 54.375 45.875C55.05 45.875 55.6874 46.0625 56.25 46.4C57.375 47.0375 58.125 48.2375 58.125 49.625Z" fill="#4DA6FF"/>
</svg>
