<svg width="80" height="70" viewBox="0 0 80 70" fill="none" xmlns="http://www.w3.org/2000/svg">
<path d="M70 35H10L18.618 17.7639C19.465 16.07 21.1962 15 23.0902 15H56.9098C58.8037 15 60.535 16.07 61.382 17.7639L70 35Z" fill="#8DC6FF"/>
<path d="M80 60H0V40C0 37.2386 2.23859 35 5 35H75C77.7614 35 80 37.2386 80 40V60Z" fill="#3E9FFF"/>
<path d="M20 70H10C7.23859 70 5 67.7614 5 65V60H25V65C25 67.7614 22.7614 70 20 70Z" fill="#8DC6FF"/>
<path d="M70 70H60C57.2386 70 55 67.7614 55 65V60H75V65C75 67.7614 72.7614 70 70 70Z" fill="#8DC6FF"/>
<path d="M40 30L47.5 20L51.25 15H28.75L25 20H40V30Z" fill="#0080FF"/>
<path d="M28.75 15H51.25L55 10H40V0L28.75 15Z" fill="#3E9FFF"/>
<path d="M5 50H0V40H15C15 45.5228 10.5228 50 5 50Z" fill="#8DC6FF"/>
<path d="M80 50H75C69.4772 50 65 45.5228 65 40H80V50Z" fill="#8DC6FF"/>
<path d="M25 40H55V45H25V40Z" fill="#8DC6FF"/>
</svg>
