<svg width="80" height="56" viewBox="0 0 80 56" fill="none" xmlns="http://www.w3.org/2000/svg">
<path d="M0 5.5V50.5C0 53.2614 2.23859 55.5 5 55.5H75C77.7614 55.5 80 53.2614 80 50.5V5.5H0ZM65 50.5H60V40.5H65V50.5ZM65 35.5H60V25.5H65V35.5ZM65 20.5H60V10.5H65V20.5Z" fill="#4DA6FF"/>
<path d="M80 10.5H0V4.97219C0 2.50219 2.00219 0.5 4.47219 0.5H75.5278C77.9978 0.5 80 2.50219 80 4.97219V10.5Z" fill="#8DC6FF"/>
<path d="M0 5.5H80V10.5H0V5.5Z" fill="#0080FF"/>
<path d="M50 30.5C50 27.7386 47.7614 25.5 45 25.5H10L7.5 20.5H5V35.5H20L10 45.5H20L35 35.5H45C47.7614 35.5 50 33.2614 50 30.5Z" fill="#B3D9FF"/>
</svg>
