<svg width="32" height="32" viewBox="0 0 32 32" fill="none" xmlns="http://www.w3.org/2000/svg">
<path d="M16 9.38477L15.375 16.3748H16.9375V8.75977L16 9.38477Z" fill="#008D75"/>
<path d="M15.0625 8.75977V16.3748H16V9.38477L15.0625 8.75977Z" fill="#2DB37F"/>
<path d="M16 9.375C21.1777 9.375 25.375 5.17769 25.375 0C20.1973 0 16 4.19731 16 9.375Z" fill="#00A085"/>
<path d="M6.625 0C6.625 5.17769 10.8223 9.375 16 9.375C16 4.19731 11.8027 0 6.625 0Z" fill="#5AC779"/>
<path d="M25.375 27.7812L24.75 29.8906L25.375 32H27.25V27.7812H25.375Z" fill="#FF7452"/>
<path d="M23.5 27.7812L22.875 29.8906L23.5 32H25.375V27.7812H23.5Z" fill="#FB9D46"/>
<path d="M21.625 26.5312L21 29.8906L21.625 32H23.5V26.5312H21.625Z" fill="#FF7452"/>
<path d="M19.75 26.5312L19.125 29.8906L19.75 32H21.625V26.5312H19.75Z" fill="#FB9D46"/>
<path d="M17.875 26.5312L17.25 29.8906L17.875 32H19.75V26.5312H17.875Z" fill="#FF7452"/>
<path d="M16 26.5312L15.375 29.8906L16 32H17.875V26.5312H16Z" fill="#FB9D46"/>
<path d="M14.125 26.5312L13.5 29.8906L14.125 32H16V26.5312H14.125Z" fill="#FDBA4C"/>
<path d="M12.25 26.5312L11.625 29.8906L12.25 32H14.125V26.5312H12.25Z" fill="#FB9D46"/>
<path d="M10.375 26.5312L9.75 29.8906L10.375 32H12.25V26.5312H10.375Z" fill="#FDBA4C"/>
<path d="M8.5 26.5312L7.875 29.8906L8.5 32H10.375V26.5312H8.5Z" fill="#FB9D46"/>
<path d="M8.5 26.5312H6.625V32H8.5V26.5312Z" fill="#FDBA4C"/>
<path d="M27.25 19.3438L26.625 21.4531L27.25 23.5625H29.125V19.3438H27.25Z" fill="#FB9D46"/>
<path d="M25.375 18.0938L24.75 21.4531L25.375 23.5625H27.25V19.3438L25.375 18.0938Z" fill="#FF7452"/>
<path d="M23.5 18.0938L22.875 21.4531L23.5 23.5625H25.375V18.0938H23.5Z" fill="#FB9D46"/>
<path d="M21.625 18.0938L21 21.4531L21.625 24.8125H23.5V18.0938H21.625Z" fill="#FF7452"/>
<path d="M19.75 18.0938L19.125 21.4531L19.75 24.8125H21.625V18.0938H19.75Z" fill="#FB9D46"/>
<path d="M17.875 18.0938L17.25 21.4531L17.875 24.8125H19.75V18.0938H17.875Z" fill="#FF7452"/>
<path d="M16 18.0938L15.375 21.4531L16 24.8125H17.875V18.0938H16Z" fill="#FB9D46"/>
<path d="M14.125 18.0938L13.5 21.4531L14.125 24.8125H16V18.0938H14.125Z" fill="#FDBA4C"/>
<path d="M12.25 18.0938L11.625 21.4531L12.25 24.8125H14.125V18.0938H12.25Z" fill="#FFD652"/>
<path d="M10.375 18.0938L9.75 21.4531L10.375 24.8125H12.25V18.0938H10.375Z" fill="#FDBA4C"/>
<path d="M10.375 18.0938H8.5V24.8125H10.375V18.0938Z" fill="#FFD652"/>
<path d="M25.375 15.125L24.75 17.2344L25.375 19.3438H27.25V15.125H25.375Z" fill="#FB9D46"/>
<path d="M23.5 15.125L22.875 17.2344L23.5 19.3438H25.375V15.125H23.5Z" fill="#FDBA4C"/>
<path d="M21.625 15.125L21 17.2344L21.625 19.3438H23.5V15.125H21.625Z" fill="#FB9D46"/>
<path d="M19.75 15.125L19.125 17.2344L19.75 19.3438H21.625V15.125H19.75Z" fill="#FDBA4C"/>
<path d="M17.875 15.125L17.25 17.2344L17.875 19.3438H19.75V15.125H17.875Z" fill="#FB9D46"/>
<path d="M16 15.125L15.375 17.2344L16 19.3438H17.875V15.125H16Z" fill="#FDBA4C"/>
<path d="M14.125 15.125L13.5 17.2344L14.125 19.3438H16V15.125H14.125Z" fill="#FFD652"/>
<path d="M12.25 15.125L11.625 17.2344L12.25 19.3438H14.125V15.125H12.25Z" fill="#FBE287"/>
<path d="M10.375 15.125L9.75 17.2344L10.375 19.3438H12.25V15.125H10.375Z" fill="#FFD652"/>
<path d="M8.5 15.125L7.875 17.2344L8.5 19.3438H10.375V15.125H8.5Z" fill="#FBE287"/>
<path d="M8.5 15.125H6.625V19.3438H8.5V15.125Z" fill="#FFD652"/>
<path d="M21.625 23.5625L21 25.6719L21.625 27.7812H23.5V23.5625H21.625Z" fill="#FB9D46"/>
<path d="M19.75 23.5625L19.125 25.6719L19.75 27.7812H21.625V23.5625H19.75Z" fill="#FDBA4C"/>
<path d="M17.875 23.5625L17.25 25.6719L17.875 27.7812H19.75V23.5625H17.875Z" fill="#FB9D46"/>
<path d="M16 23.5625L15.375 25.6719L16 27.7812H17.875V23.5625H16Z" fill="#FDBA4C"/>
<path d="M14.125 23.5625L13.5 25.6719L14.125 27.7812H16V23.5625H14.125Z" fill="#FFD652"/>
<path d="M12.25 23.5625L11.625 25.6719L12.25 27.7812H14.125V23.5625H12.25Z" fill="#FBE287"/>
<path d="M10.375 23.5625L9.75 25.6719L10.375 27.7812H12.25V23.5625H10.375Z" fill="#FFD652"/>
<path d="M8.5 23.5625L7.875 25.6719L8.5 27.7812H10.375V23.5625H8.5Z" fill="#FBE287"/>
<path d="M6.625 23.5625L6 25.6719L6.625 27.7812H8.5V23.5625H6.625Z" fill="#FFD652"/>
<path d="M4.75 23.5625L4.125 25.6719L4.75 27.7812H6.625V23.5625H4.75Z" fill="#FBE287"/>
<path d="M4.75 23.5625H2.875V27.7812H4.75V23.5625Z" fill="#FFD652"/>
</svg>
