<svg width="60" height="60" viewBox="0 0 60 60" fill="none" xmlns="http://www.w3.org/2000/svg">
<path d="M28.125 11.25H31.875V26.25H28.125V11.25Z" fill="#4DA6FF"/>
<path d="M30 60C40.3553 60 48.75 51.6053 48.75 41.25C48.75 30.8947 40.3553 22.5 30 22.5C19.6447 22.5 11.25 30.8947 11.25 41.25C11.25 51.6053 19.6447 60 30 60Z" fill="#8DC6FF"/>
<path d="M30 39.375C28.9673 39.375 28.125 38.5345 28.125 37.5C28.125 36.4655 28.9673 35.625 30 35.625C31.0327 35.625 31.875 36.4655 31.875 37.5H35.625C35.625 35.0588 34.0528 32.997 31.875 32.2204V30H28.125V32.2204C25.9472 32.997 24.375 35.0588 24.375 37.5C24.375 40.6018 26.8982 43.125 30 43.125C31.0327 43.125 31.875 43.9655 31.875 45C31.875 46.0345 31.0327 46.875 30 46.875C28.9673 46.875 28.125 46.0345 28.125 45H24.375C24.375 47.4412 25.9472 49.503 28.125 50.2796V52.5H31.875V50.2796C34.0528 49.503 35.625 47.4412 35.625 45C35.625 41.8982 33.1018 39.375 30 39.375Z" fill="#4DA6FF"/>
<path d="M39.375 0C35.4612 0 32.0153 1.99969 30 5.03215C27.9847 1.99969 24.5388 0 20.625 0H9.375V3.75C9.375 9.96328 14.4117 15 20.625 15H39.375C45.5883 15 50.625 9.96328 50.625 3.75V0H39.375Z" fill="#8DC6FF"/>
<path d="M28.125 11.25H31.875V15H28.125V11.25Z" fill="#007FFF"/>
</svg>
