<svg width="48" height="48" viewBox="0 0 48 48" fill="none" xmlns="http://www.w3.org/2000/svg">
<path d="M4.05897 22.7979V23.4349L3.28223 23.1774L4.05897 22.7979Z" fill="#49E4A3"/>
<path d="M30.8074 33.6829V42.4318L44.347 32.6877V24.1045L30.8074 33.6829Z" fill="#28AF6E"/>
<path d="M44.9454 23.6815L32.241 32.669L4.06072 23.4343V18.1614L9.49575 19.9853C9.49575 19.9853 4.58744 17.4012 3.05444 16.1672V13.0645C3.05444 13.0645 11.2887 20.619 31.4762 25.3249L43.6148 16.2282V18.0682L44.82 18.3477L44.9454 23.6815Z" fill="#28AF6E"/>
<path d="M15.2358 20.0928V27.0968L19.1496 28.3793V21.6557C17.7459 21.1353 16.4426 20.6114 15.2358 20.0928Z" fill="#FFCA6C"/>
<path d="M3.28271 23.1787V31.3303L30.8074 42.4315V33.6826L3.28271 23.1787Z" fill="#39C988"/>
<path d="M15.2542 27.7471V36.1585L19.2386 37.7655V29.2676L15.2542 27.7471Z" fill="#FFCA6C"/>
<path d="M32.2408 32.6686L30.8074 33.6826L3.2832 23.1787L32.2408 32.6686Z" fill="#49E4A3"/>
<path d="M43.6152 16.2278L31.4755 25.3259C26.8807 24.2045 22.7527 22.9739 19.0915 21.6517C17.7127 21.1543 16.3992 20.6437 15.1512 20.1201C9.93664 17.9383 5.89591 15.5514 3.05518 13.0641C7.92506 9.76957 12.8254 7.29105 17.7606 5.56738C21.697 8.78751 26.1998 11.0551 30.9432 12.7718C34.565 14.0808 38.741 15.2285 43.6152 16.2278Z" fill="#49E4A3"/>
<path d="M30.5592 23.7941C19.8186 21.081 11.4213 17.652 6.00513 13.781C6.42319 13.5208 6.44248 12.9191 6.04182 12.6329C9.56486 10.4416 13.1665 8.64352 16.792 7.2666C17.1727 7.55198 17.672 7.62397 18.1162 7.45344C23.4053 11.4489 30.0725 14.3279 39.206 16.5408C38.7394 16.8904 38.8905 17.6258 39.4572 17.7632L31.7226 23.5597C31.3194 23.4587 30.8913 23.5442 30.5592 23.7941Z" fill="#39C988"/>
<path d="M44.9453 23.6815L32.241 32.669V27.7836L44.82 18.3477L44.9453 23.6815Z" fill="#39C988"/>
<path d="M43.6148 16.2285V18.0686L31.4763 27.0744V25.3252L43.6148 16.2285Z" fill="#39C988"/>
<path d="M44.8201 18.3478L32.2411 27.7838L31.4763 27.0742L43.6148 18.0684L44.8201 18.3478Z" fill="#49E4A3"/>
<path d="M9.49582 19.9858L4.06079 18.1618L5.24993 17.6133C5.24993 17.6133 8.20434 19.3659 9.49582 19.9858Z" fill="#39C988"/>
<path d="M44.3473 24.1045V28.2181L32.241 32.6699L44.3473 24.1045Z" fill="#189453"/>
<path d="M27.589 14.3247C27.589 14.3247 30.4416 16.0829 25.757 18.0364C21.0723 19.9899 19.061 18.5958 18.5688 17.733C18.325 17.3056 18.3306 15.3484 21.1376 14.1346C23.9446 12.9208 26.595 13.6287 27.589 14.3247Z" fill="#49E4A3"/>
<path d="M32.5622 20.3103C30.5838 21.1353 29.7344 20.5466 29.5266 20.1822C29.4236 20.0017 29.426 19.1752 30.6114 18.6626C32.64 17.7853 35.205 19.2083 32.5622 20.3103Z" fill="#49E4A3"/>
<path d="M12.3654 12.8576C12.3654 12.8576 11.1608 12.1152 13.1391 11.2902C15.1175 10.4652 15.9668 11.0539 16.1746 11.4183C16.2776 11.5987 16.2751 12.4252 15.0898 12.9378C13.9044 13.4504 12.7851 13.1515 12.3654 12.8576Z" fill="#49E4A3"/>
<path d="M30.9432 12.7721L19.0915 21.6521C17.7126 21.1546 16.3992 20.644 15.1511 20.1204L27.0508 11.2012C28.2726 11.751 29.5686 12.2746 30.9432 12.7721Z" fill="#FFDE9B"/>
<path d="M15.8541 27.2988L15.2542 27.7476C16.5022 28.2712 17.8486 28.7753 19.2274 29.2729L20.0337 28.6688L15.8541 27.2988Z" fill="#FFDE9B"/>
</svg>
