<svg width="60" height="60" viewBox="0 0 60 60" fill="none" xmlns="http://www.w3.org/2000/svg">
<g clip-path="url(#clip0_61_1842)">
<path d="M0 0H37.5V60H0V0Z" fill="#4DA6FF"/>
<path d="M60 7.5V52.5H37.5L35.625 29.8297L37.5 7.5H60Z" fill="#8DC6FF"/>
<path d="M33.75 7.5H37.5V52.5H33.75V7.5Z" fill="#007FFF"/>
<path d="M16.875 7.5C9.63867 7.5 3.75 13.3887 3.75 20.625C3.75 27.8613 9.63867 33.75 16.875 33.75C24.1113 33.75 30 27.8613 30 20.625C30 13.3887 24.1113 7.5 16.875 7.5ZM26.0603 18.75H22.4366C22.3182 16.4795 21.9745 14.3096 21.4025 12.4672C23.7533 13.7777 25.5066 16.0338 26.0603 18.75ZM15.1046 22.5H18.6455C18.3976 26.5112 17.4761 29.0668 16.8751 29.8297C16.2739 29.0668 15.3525 26.5112 15.1046 22.5ZM15.1046 18.75C15.3525 14.7388 16.2741 12.1832 16.875 11.4203C17.4761 12.1832 18.3975 14.7388 18.6454 18.75H15.1046ZM12.3475 12.4672C11.7755 14.3098 11.4318 16.4795 11.3134 18.75H7.68973C8.24344 16.0338 9.99668 13.7777 12.3475 12.4672ZM7.68973 22.5H11.3134C11.4318 24.7705 11.7755 26.9404 12.3475 28.7828C9.99668 27.4723 8.24344 25.2162 7.68973 22.5ZM21.4025 28.7828C21.9745 26.9402 22.3182 24.7705 22.4366 22.5H26.0603C25.5066 25.2162 23.7533 27.4723 21.4025 28.7828Z" fill="#8DC6FF"/>
<path d="M3.75 37.5H30V41.25H3.75V37.5Z" fill="#8DC6FF"/>
<path d="M7.5 45H26.25V48.75H7.5V45Z" fill="#8DC6FF"/>
<path d="M53.6117 14.9863L50.0493 18.5488L43.579 16.9313L42.6708 20.5679L46.9585 21.6396L43.1249 25.4732L40.7006 23.0489L38.0493 25.7002L43.1249 30.7759L56.2631 17.6377L53.6117 14.9863Z" fill="#4DA6FF"/>
<path d="M41.25 33.75H56.25V37.5H41.25V33.75Z" fill="#4DA6FF"/>
<path d="M45 41.25H52.5V45H45V41.25Z" fill="#4DA6FF"/>
</g>
<defs>
<clipPath id="clip0_61_1842">
<rect width="60" height="60" fill="white"/>
</clipPath>
</defs>
</svg>
