<svg width="33" height="32" viewBox="0 0 33 32" fill="none" xmlns="http://www.w3.org/2000/svg">
<g clip-path="url(#clip0_61_1461)">
<path d="M27.9936 5.04199H8.0278L4.01611 8.48293L22.6356 29.3288L27.2404 27.7016C30.3767 24.7794 32.3317 20.6182 32.3333 16.0047C32.3349 11.7685 30.6913 7.90762 27.9936 5.04199Z" fill="#7CE3FF"/>
<path d="M1.15568 10.937C0.622997 12.5283 0.334122 14.2298 0.333497 15.9978C0.330622 24.3484 6.79368 31.3346 15.1937 31.9592L22.6358 29.3292L4.01625 8.4834L1.15568 10.937Z" fill="#55DAFE"/>
<path d="M23.2846 1.58887H12.2231V19.0203L21.2136 30.4084H23.2906C24.7171 29.7179 26.0491 28.8107 27.2405 27.701V26.44C27.2409 25.4342 27.0535 24.5914 26.1605 23.7304C25.509 23.1022 24.6333 22.759 23.728 22.7589H17.6369C16.9187 22.7589 16.3367 22.176 16.337 21.4581V21.2702C16.3373 20.3313 15.5761 19.5695 14.637 19.5693L16.5065 17.7015C17.1719 17.0366 16.7012 15.8994 15.7604 15.8992C15.7608 14.6411 16.7815 13.6216 18.0401 13.6218H20.1184C20.4791 13.6219 20.825 13.7654 21.08 14.0204C21.08 14.0204 22.4796 15.4186 22.5044 15.4401C23.2243 16.0637 24.3556 15.5131 24.356 14.5564V12.5057C24.3563 11.6391 25.051 10.9143 25.9179 10.9166C27.0627 10.9196 27.9932 9.99293 27.9936 8.84912V5.04149C26.6523 3.61649 25.0551 2.44405 23.2846 1.58887Z" fill="#30CD9C"/>
<path d="M14.2271 15.9969C14.2293 9.66319 17.9319 4.17913 23.2847 1.58894C21.1725 0.568688 18.8134 0.000500338 16.3445 3.37677e-07C9.28776 -0.00143716 3.28132 4.58687 1.15576 10.9361H2.45276C3.74182 10.9364 4.78582 11.9813 4.78532 13.2699V16.7609C4.87976 18.6069 7.45576 19.0074 8.09239 17.2191C8.23089 16.8302 8.5637 16.513 9.02976 16.4327C9.68308 16.3232 10.3093 16.7559 10.4291 17.4144L11.028 20.7041C11.5568 23.6099 14.0911 25.7259 17.0475 25.7266H17.1654C17.6745 25.7266 17.992 26.2323 17.8176 26.6794C17.184 28.3038 15.9117 28.9901 15.797 29.0779C15.4291 29.3595 15.2055 29.7939 15.1936 30.2618V31.9583C15.583 31.9862 15.9598 31.9999 16.3533 32C17.8409 32.0003 19.2845 31.7932 20.6664 31.4042C21.568 31.1505 22.4458 30.8174 23.2906 30.4084C17.9444 27.8234 14.225 22.3561 14.2271 15.9969Z" fill="#0CAF7B"/>
<path d="M25.3876 1.87686C25.1885 1.38205 24.626 1.14242 24.131 1.34161C13.5136 5.61549 5.64228 14.8259 3.07509 25.9797C2.95553 26.4995 3.2799 27.0179 3.79971 27.1375C3.87259 27.1543 3.94546 27.1622 4.01721 27.1622C4.45702 27.1622 4.85465 26.8598 4.95753 26.4129C7.38309 15.8742 14.8204 7.17161 24.8524 3.13342C25.3471 2.9343 25.5868 2.37174 25.3876 1.87686Z" fill="#2ED0FC"/>
<path d="M31.0761 8.2993C30.5499 8.20773 30.0506 8.55992 29.9592 9.08536C29.6553 10.8337 29.0883 12.501 28.2979 14.041C24.3054 6.64805 16.4925 1.66992 7.54963 1.66992C7.01625 1.66992 6.58382 2.10236 6.58382 2.63573C6.58382 3.16911 7.01625 3.60155 7.54963 3.60155C16.1731 3.60155 23.6527 8.64311 27.1248 16.0004C20.8279 25.1135 7.8755 25.4359 1.9755 20.7459C1.55794 20.4139 0.950317 20.4833 0.618505 20.9009C0.286567 21.3185 0.356005 21.926 0.773567 22.2579C7.52725 27.6265 20.9746 26.9817 27.9831 18.0997C28.6482 20.0078 29.0562 22.04 29.1624 24.1571C29.1883 24.6734 29.615 25.0745 30.1263 25.0745C30.1426 25.0745 30.159 25.0741 30.1755 25.0733C30.7082 25.0465 31.1184 24.593 31.0917 24.0603C30.9519 21.2735 30.3326 18.6214 29.3178 16.1804C30.5777 14.1118 31.4453 11.8154 31.8624 9.4163C31.9536 8.89073 31.6016 8.39067 31.0761 8.2993Z" fill="#2ED0FC"/>
<path d="M4.48266 25.522C5.90504 25.522 7.0581 24.3689 7.0581 22.9465C7.0581 21.5242 5.90504 20.3711 4.48266 20.3711C3.06029 20.3711 1.90723 21.5242 1.90723 22.9465C1.90723 24.3689 3.06029 25.522 4.48266 25.522Z" fill="#B9F0FF"/>
<path d="M30.1589 16.0686C30.1589 17.2437 29.1654 18.1804 27.9831 18.1005C26.9234 18.029 26.0859 17.1466 26.0859 16.0686C26.0859 14.8936 27.0849 13.9382 28.298 14.0419C29.3404 14.131 30.1589 15.0031 30.1589 16.0686Z" fill="#B9F0FF"/>
<path d="M18.2429 8.03564C19.6653 8.03564 20.8184 6.88258 20.8184 5.4602C20.8184 4.03783 19.6653 2.88477 18.2429 2.88477C16.8205 2.88477 15.6675 4.03783 15.6675 5.4602C15.6675 6.88258 16.8205 8.03564 18.2429 8.03564Z" fill="#B9F0FF"/>
</g>
<defs>
<clipPath id="clip0_61_1461">
<rect width="32" height="32" fill="white" transform="translate(0.333496)"/>
</clipPath>
</defs>
</svg>
