<svg width="60" height="60" viewBox="0 0 60 60" fill="none" xmlns="http://www.w3.org/2000/svg">
<g clip-path="url(#clip0_61_1721)">
<path d="M11.25 0H3.75V7.5L5.625 9.375L3.75 11.25V60H11.25V11.25L9.375 9.375L11.25 7.5V0Z" fill="#4DA6FF"/>
<path d="M0 7.5H3.75L5.625 9.375L3.75 11.25H0V7.5Z" fill="#8DC6FF"/>
<path d="M52.5 7.5L50.625 8.4375L48.75 7.5H26.25L24.375 8.4375L22.5 7.5H11.25L9.375 9.375L11.25 11.25H22.5L24.375 10.3125L26.25 11.25H48.75L50.625 10.3125L52.5 11.25H60V7.5H52.5Z" fill="#8DC6FF"/>
<path d="M60 18.75V48.75H15V18.75H22.5L24.375 22.5L26.25 18.75H48.75L50.625 22.5L52.5 18.75H60Z" fill="#8DC6FF"/>
<path d="M26.25 3.75V7.5L24.375 8.4375L22.5 7.5V3.75H26.25Z" fill="#4DA6FF"/>
<path d="M26.25 11.25V18.75L24.375 22.5L22.5 18.75V11.25L24.375 10.3125L26.25 11.25Z" fill="#4DA6FF"/>
<path d="M52.5 3.75V7.5L50.625 8.4375L48.75 7.5V3.75H52.5Z" fill="#4DA6FF"/>
<path d="M48.75 11.25L50.625 10.3125L52.5 11.25V18.75L50.625 22.5L48.75 18.75V11.25Z" fill="#4DA6FF"/>
<path d="M37.5 22.5L24.375 33.75H28.125V45H35.625V37.5H39.375V45H46.875V33.75H50.625L37.5 22.5Z" fill="#4DA6FF"/>
<path d="M22.5 7.5H26.25V11.25H22.5V7.5Z" fill="#007FFF"/>
<path d="M48.75 7.5H52.5V11.25H48.75V7.5Z" fill="#007FFF"/>
<path d="M22.5 18.75H26.25V22.5H22.5V18.75Z" fill="#007FFF"/>
<path d="M48.75 18.75H52.5V22.5H48.75V18.75Z" fill="#007FFF"/>
<path d="M3.75 7.5H11.25V11.25H3.75V7.5Z" fill="#007FFF"/>
</g>
<defs>
<clipPath id="clip0_61_1721">
<rect width="60" height="60" fill="white"/>
</clipPath>
</defs>
</svg>
