<svg width="12" height="13" viewBox="0 0 12 13" fill="none" xmlns="http://www.w3.org/2000/svg">
<path d="M2.3337 9.10776C1.80862 8.37245 1.50232 7.47374 1.50232 6.50209C1.50232 4.01605 3.51805 2.00271 6.00052 2.00271C6.97192 2.00271 7.8704 2.31201 8.60551 2.83431L9.67901 1.76053C8.66385 0.969779 7.38615 0.5 6.00052 0.5C2.68667 0.5 0 3.18737 0 6.50209C0 7.88808 0.469657 9.16611 1.2602 10.1815L2.3337 9.10776Z" fill="#08122A"/>
<path d="M9.66758 3.89214C10.1927 4.62745 10.499 5.52615 10.499 6.49781C10.499 8.98385 8.48323 10.9972 6.00076 10.9972C5.02936 10.9972 4.13088 10.6879 3.39577 10.1656L2.32227 11.2394C3.33742 12.0301 4.61512 12.4999 6.00076 12.4999C9.31461 12.4999 12.0013 9.81253 12.0013 6.49781C12.0013 5.11182 11.5316 3.83378 10.7411 2.81836L9.66758 3.89214Z" fill="#08122A"/>
</svg>
