<svg width="20" height="20" viewBox="0 0 20 20" fill="none" xmlns="http://www.w3.org/2000/svg">
<path d="M5.71568 19.2852H17.8585C18.6475 19.2852 19.2871 18.6456 19.2871 17.8566V5.71373C19.2871 4.92474 18.6475 4.28516 17.8585 4.28516H5.71568C4.9267 4.28516 4.28711 4.92474 4.28711 5.71373V17.8566C4.28711 18.6456 4.9267 19.2852 5.71568 19.2852Z" fill="#000B26" fill-opacity="0.1"/>
<path d="M5.71568 19.2852H17.8585C18.6475 19.2852 19.2871 18.6456 19.2871 17.8566V5.71373C19.2871 4.92474 18.6475 4.28516 17.8585 4.28516H5.71568C4.9267 4.28516 4.28711 4.92474 4.28711 5.71373V17.8566C4.28711 18.6456 4.9267 19.2852 5.71568 19.2852Z" stroke="#08122A" stroke-width="1.5" stroke-linecap="round" stroke-linejoin="round"/>
<path d="M0.714844 14.9996V2.14244C0.714844 1.76355 0.865354 1.4002 1.13326 1.13229C1.40117 0.864377 1.76453 0.713867 2.14342 0.713867H15.0006" stroke="#08122A" stroke-width="1.5" stroke-linecap="round" stroke-linejoin="round"/>
</svg>
