<svg width="12" height="20" viewBox="0 0 12 20" fill="none" xmlns="http://www.w3.org/2000/svg">
<path d="M10.3555 11.0345L10.9072 7.58621H7.59685V5.17241C7.59685 4.2069 7.94168 3.44828 9.45892 3.44828H11.0451V0.275862C10.1486 0.137931 9.18306 0 8.2865 0C5.45892 0 3.45892 1.72414 3.45892 4.82759V7.58621H0.355469V11.0345H3.45892V20C4.83823 20 6.21754 20 7.59685 20V11.0345H10.3555Z" fill="white"/>
<path d="M10.3555 11.0345L10.9072 7.58621H7.59685V5.17241C7.59685 4.2069 7.94168 3.44828 9.45892 3.44828H11.0451V0.275862C10.1486 0.137931 9.18306 0 8.2865 0C5.45892 0 3.45892 1.72414 3.45892 4.82759V7.58621H0.355469V11.0345H3.45892V20C4.83823 20 6.21754 20 7.59685 20V11.0345H10.3555Z" fill="url(#paint0_linear_293_4082)"/>
<defs>
<linearGradient id="paint0_linear_293_4082" x1="0.355469" y1="20" x2="16.9844" y2="11.1121" gradientUnits="userSpaceOnUse">
<stop stop-color="#0062E0"/>
<stop offset="1" stop-color="#19AFFF"/>
</linearGradient>
</defs>
</svg>
