<svg width="26" height="26" viewBox="0 0 26 26" fill="none" xmlns="http://www.w3.org/2000/svg">
<path d="M12.9011 0.5C9.50637 0.5 9.08034 0.514844 7.74705 0.575521C6.41636 0.636459 5.50805 0.847136 4.71328 1.15625C3.89117 1.47552 3.1938 1.9026 2.49903 2.59766C1.80373 3.29245 1.37666 3.98984 1.05636 4.81172C0.746474 5.60677 0.535543 6.51536 0.475649 7.84557C0.416015 9.17891 0.400391 9.60521 0.400391 13C0.400391 16.3948 0.415495 16.8195 0.475909 18.1529C0.537106 19.4836 0.747776 20.3919 1.05662 21.1867C1.37614 22.0089 1.80321 22.7063 2.49824 23.401C3.19275 24.0964 3.89013 24.5245 4.71172 24.8438C5.50701 25.1529 6.41557 25.3635 7.746 25.4245C9.0793 25.4852 9.50506 25.5 12.8995 25.5C16.2944 25.5 16.7192 25.4852 18.0525 25.4245C19.3832 25.3635 20.2925 25.1529 21.0878 24.8438C21.9096 24.5245 22.606 24.0964 23.3005 23.401C23.9958 22.7063 24.4228 22.0089 24.7431 21.187C25.0504 20.3919 25.2614 19.4833 25.3239 18.1531C25.3838 16.8198 25.3994 16.3948 25.3994 13C25.3994 9.60521 25.3838 9.17917 25.3239 7.84583C25.2614 6.5151 25.0504 5.60677 24.7431 4.81198C24.4228 3.98984 23.9958 3.29245 23.3005 2.59766C22.6052 1.90234 21.9099 1.47526 21.087 1.15625C20.2902 0.847136 19.3813 0.636459 18.0506 0.575521C16.7173 0.514844 16.2929 0.5 12.8972 0.5H12.9011ZM11.7797 2.7526C12.1125 2.75208 12.4839 2.7526 12.9011 2.7526C16.2385 2.7526 16.634 2.76458 17.9519 2.82448C19.1707 2.88021 19.8321 3.08385 20.2727 3.25495C20.856 3.48151 21.2719 3.75234 21.7091 4.18984C22.1466 4.62734 22.4174 5.04401 22.6445 5.62734C22.8156 6.06745 23.0195 6.72891 23.075 7.94766C23.1349 9.26536 23.1479 9.6612 23.1479 12.9971C23.1479 16.3331 23.1349 16.7289 23.075 18.0466C23.0192 19.2654 22.8156 19.9268 22.6445 20.3669C22.418 20.9503 22.1466 21.3656 21.7091 21.8029C21.2716 22.2404 20.8563 22.5112 20.2727 22.7378C19.8326 22.9096 19.1707 23.1128 17.9519 23.1685C16.6343 23.2284 16.2385 23.2414 12.9011 23.2414C9.5634 23.2414 9.16784 23.2284 7.85017 23.1685C6.63145 23.1122 5.97001 22.9086 5.52914 22.7375C4.94583 22.5109 4.52917 22.2401 4.09169 21.8026C3.6542 21.3651 3.38337 20.9495 3.1563 20.3659C2.98521 19.9258 2.78131 19.2643 2.72584 18.0456C2.66595 16.7279 2.65397 16.332 2.65397 12.994C2.65397 9.65599 2.66595 9.26224 2.72584 7.94453C2.78157 6.72578 2.98521 6.06432 3.1563 5.6237C3.38285 5.04036 3.6542 4.6237 4.09169 4.1862C4.52917 3.7487 4.94583 3.47786 5.52914 3.25078C5.96975 3.07891 6.63145 2.87578 7.85017 2.81979C9.00326 2.76771 9.45012 2.75208 11.7797 2.74948V2.7526ZM19.5732 4.82812C18.7451 4.82812 18.0733 5.49922 18.0733 6.3276C18.0733 7.15573 18.7451 7.8276 19.5732 7.8276C20.4014 7.8276 21.0732 7.15573 21.0732 6.3276C21.0732 5.49948 20.4014 4.8276 19.5732 4.8276V4.82812ZM12.9011 6.58073C9.35611 6.58073 6.48198 9.45495 6.48198 13C6.48198 16.5451 9.35611 19.418 12.9011 19.418C16.446 19.418 19.3191 16.5451 19.3191 13C19.3191 9.45495 16.4457 6.58073 12.9008 6.58073H12.9011ZM12.9011 8.83333C15.202 8.83333 17.0676 10.6987 17.0676 13C17.0676 15.301 15.202 17.1667 12.9011 17.1667C10.5998 17.1667 8.73452 15.301 8.73452 13C8.73452 10.6987 10.5998 8.83333 12.9011 8.83333Z" fill="white"/>
<path d="M12.9011 0.5C9.50637 0.5 9.08034 0.514844 7.74705 0.575521C6.41636 0.636459 5.50805 0.847136 4.71328 1.15625C3.89117 1.47552 3.1938 1.9026 2.49903 2.59766C1.80373 3.29245 1.37666 3.98984 1.05636 4.81172C0.746474 5.60677 0.535543 6.51536 0.475649 7.84557C0.416015 9.17891 0.400391 9.60521 0.400391 13C0.400391 16.3948 0.415495 16.8195 0.475909 18.1529C0.537106 19.4836 0.747776 20.3919 1.05662 21.1867C1.37614 22.0089 1.80321 22.7063 2.49824 23.401C3.19275 24.0964 3.89013 24.5245 4.71172 24.8438C5.50701 25.1529 6.41557 25.3635 7.746 25.4245C9.0793 25.4852 9.50506 25.5 12.8995 25.5C16.2944 25.5 16.7192 25.4852 18.0525 25.4245C19.3832 25.3635 20.2925 25.1529 21.0878 24.8438C21.9096 24.5245 22.606 24.0964 23.3005 23.401C23.9958 22.7063 24.4228 22.0089 24.7431 21.187C25.0504 20.3919 25.2614 19.4833 25.3239 18.1531C25.3838 16.8198 25.3994 16.3948 25.3994 13C25.3994 9.60521 25.3838 9.17917 25.3239 7.84583C25.2614 6.5151 25.0504 5.60677 24.7431 4.81198C24.4228 3.98984 23.9958 3.29245 23.3005 2.59766C22.6052 1.90234 21.9099 1.47526 21.087 1.15625C20.2902 0.847136 19.3813 0.636459 18.0506 0.575521C16.7173 0.514844 16.2929 0.5 12.8972 0.5H12.9011ZM11.7797 2.7526C12.1125 2.75208 12.4839 2.7526 12.9011 2.7526C16.2385 2.7526 16.634 2.76458 17.9519 2.82448C19.1707 2.88021 19.8321 3.08385 20.2727 3.25495C20.856 3.48151 21.2719 3.75234 21.7091 4.18984C22.1466 4.62734 22.4174 5.04401 22.6445 5.62734C22.8156 6.06745 23.0195 6.72891 23.075 7.94766C23.1349 9.26536 23.1479 9.6612 23.1479 12.9971C23.1479 16.3331 23.1349 16.7289 23.075 18.0466C23.0192 19.2654 22.8156 19.9268 22.6445 20.3669C22.418 20.9503 22.1466 21.3656 21.7091 21.8029C21.2716 22.2404 20.8563 22.5112 20.2727 22.7378C19.8326 22.9096 19.1707 23.1128 17.9519 23.1685C16.6343 23.2284 16.2385 23.2414 12.9011 23.2414C9.5634 23.2414 9.16784 23.2284 7.85017 23.1685C6.63145 23.1122 5.97001 22.9086 5.52914 22.7375C4.94583 22.5109 4.52917 22.2401 4.09169 21.8026C3.6542 21.3651 3.38337 20.9495 3.1563 20.3659C2.98521 19.9258 2.78131 19.2643 2.72584 18.0456C2.66595 16.7279 2.65397 16.332 2.65397 12.994C2.65397 9.65599 2.66595 9.26224 2.72584 7.94453C2.78157 6.72578 2.98521 6.06432 3.1563 5.6237C3.38285 5.04036 3.6542 4.6237 4.09169 4.1862C4.52917 3.7487 4.94583 3.47786 5.52914 3.25078C5.96975 3.07891 6.63145 2.87578 7.85017 2.81979C9.00326 2.76771 9.45012 2.75208 11.7797 2.74948V2.7526ZM19.5732 4.82812C18.7451 4.82812 18.0733 5.49922 18.0733 6.3276C18.0733 7.15573 18.7451 7.8276 19.5732 7.8276C20.4014 7.8276 21.0732 7.15573 21.0732 6.3276C21.0732 5.49948 20.4014 4.8276 19.5732 4.8276V4.82812ZM12.9011 6.58073C9.35611 6.58073 6.48198 9.45495 6.48198 13C6.48198 16.5451 9.35611 19.418 12.9011 19.418C16.446 19.418 19.3191 16.5451 19.3191 13C19.3191 9.45495 16.4457 6.58073 12.9008 6.58073H12.9011ZM12.9011 8.83333C15.202 8.83333 17.0676 10.6987 17.0676 13C17.0676 15.301 15.202 17.1667 12.9011 17.1667C10.5998 17.1667 8.73452 15.301 8.73452 13C8.73452 10.6987 10.5998 8.83333 12.9011 8.83333Z" fill="url(#paint0_radial_293_4049)"/>
<path d="M12.9011 0.5C9.50637 0.5 9.08034 0.514844 7.74705 0.575521C6.41636 0.636459 5.50805 0.847136 4.71328 1.15625C3.89117 1.47552 3.1938 1.9026 2.49903 2.59766C1.80373 3.29245 1.37666 3.98984 1.05636 4.81172C0.746474 5.60677 0.535543 6.51536 0.475649 7.84557C0.416015 9.17891 0.400391 9.60521 0.400391 13C0.400391 16.3948 0.415495 16.8195 0.475909 18.1529C0.537106 19.4836 0.747776 20.3919 1.05662 21.1867C1.37614 22.0089 1.80321 22.7063 2.49824 23.401C3.19275 24.0964 3.89013 24.5245 4.71172 24.8438C5.50701 25.1529 6.41557 25.3635 7.746 25.4245C9.0793 25.4852 9.50506 25.5 12.8995 25.5C16.2944 25.5 16.7192 25.4852 18.0525 25.4245C19.3832 25.3635 20.2925 25.1529 21.0878 24.8438C21.9096 24.5245 22.606 24.0964 23.3005 23.401C23.9958 22.7063 24.4228 22.0089 24.7431 21.187C25.0504 20.3919 25.2614 19.4833 25.3239 18.1531C25.3838 16.8198 25.3994 16.3948 25.3994 13C25.3994 9.60521 25.3838 9.17917 25.3239 7.84583C25.2614 6.5151 25.0504 5.60677 24.7431 4.81198C24.4228 3.98984 23.9958 3.29245 23.3005 2.59766C22.6052 1.90234 21.9099 1.47526 21.087 1.15625C20.2902 0.847136 19.3813 0.636459 18.0506 0.575521C16.7173 0.514844 16.2929 0.5 12.8972 0.5H12.9011ZM11.7797 2.7526C12.1125 2.75208 12.4839 2.7526 12.9011 2.7526C16.2385 2.7526 16.634 2.76458 17.9519 2.82448C19.1707 2.88021 19.8321 3.08385 20.2727 3.25495C20.856 3.48151 21.2719 3.75234 21.7091 4.18984C22.1466 4.62734 22.4174 5.04401 22.6445 5.62734C22.8156 6.06745 23.0195 6.72891 23.075 7.94766C23.1349 9.26536 23.1479 9.6612 23.1479 12.9971C23.1479 16.3331 23.1349 16.7289 23.075 18.0466C23.0192 19.2654 22.8156 19.9268 22.6445 20.3669C22.418 20.9503 22.1466 21.3656 21.7091 21.8029C21.2716 22.2404 20.8563 22.5112 20.2727 22.7378C19.8326 22.9096 19.1707 23.1128 17.9519 23.1685C16.6343 23.2284 16.2385 23.2414 12.9011 23.2414C9.5634 23.2414 9.16784 23.2284 7.85017 23.1685C6.63145 23.1122 5.97001 22.9086 5.52914 22.7375C4.94583 22.5109 4.52917 22.2401 4.09169 21.8026C3.6542 21.3651 3.38337 20.9495 3.1563 20.3659C2.98521 19.9258 2.78131 19.2643 2.72584 18.0456C2.66595 16.7279 2.65397 16.332 2.65397 12.994C2.65397 9.65599 2.66595 9.26224 2.72584 7.94453C2.78157 6.72578 2.98521 6.06432 3.1563 5.6237C3.38285 5.04036 3.6542 4.6237 4.09169 4.1862C4.52917 3.7487 4.94583 3.47786 5.52914 3.25078C5.96975 3.07891 6.63145 2.87578 7.85017 2.81979C9.00326 2.76771 9.45012 2.75208 11.7797 2.74948V2.7526ZM19.5732 4.82812C18.7451 4.82812 18.0733 5.49922 18.0733 6.3276C18.0733 7.15573 18.7451 7.8276 19.5732 7.8276C20.4014 7.8276 21.0732 7.15573 21.0732 6.3276C21.0732 5.49948 20.4014 4.8276 19.5732 4.8276V4.82812ZM12.9011 6.58073C9.35611 6.58073 6.48198 9.45495 6.48198 13C6.48198 16.5451 9.35611 19.418 12.9011 19.418C16.446 19.418 19.3191 16.5451 19.3191 13C19.3191 9.45495 16.4457 6.58073 12.9008 6.58073H12.9011ZM12.9011 8.83333C15.202 8.83333 17.0676 10.6987 17.0676 13C17.0676 15.301 15.202 17.1667 12.9011 17.1667C10.5998 17.1667 8.73452 15.301 8.73452 13C8.73452 10.6987 10.5998 8.83333 12.9011 8.83333Z" fill="url(#paint1_radial_293_4049)"/>
<defs>
<radialGradient id="paint0_radial_293_4049" cx="0" cy="0" r="1" gradientUnits="userSpaceOnUse" gradientTransform="translate(7.04078 27.4255) rotate(-90) scale(24.7768 23.0435)">
<stop stop-color="#FFDD55"/>
<stop offset="0.1" stop-color="#FFDD55"/>
<stop offset="0.5" stop-color="#FF543E"/>
<stop offset="1" stop-color="#C837AB"/>
</radialGradient>
<radialGradient id="paint1_radial_293_4049" cx="0" cy="0" r="1" gradientUnits="userSpaceOnUse" gradientTransform="translate(-3.78707 2.30096) rotate(78.6811) scale(11.0753 45.6513)">
<stop stop-color="#3771C8"/>
<stop offset="0.128" stop-color="#3771C8"/>
<stop offset="1" stop-color="#6600FF" stop-opacity="0"/>
</radialGradient>
</defs>
</svg>
