<svg width="21" height="20" viewBox="0 0 21 20" fill="none" xmlns="http://www.w3.org/2000/svg">
<path d="M2.51748 4.85917C3.8593 4.85917 4.94706 3.77141 4.94706 2.42959C4.94706 1.08776 3.8593 0 2.51748 0C1.17565 0 0.0878906 1.08776 0.0878906 2.42959C0.0878906 3.77141 1.17565 4.85917 2.51748 4.85917Z" fill="#0A66C2"/>
<path d="M7.17215 6.6547H11.1988V8.49931C11.1988 8.49931 12.2914 6.31396 15.2644 6.31396C17.9165 6.31396 20.1134 7.62043 20.1134 11.6026V20H15.9407V12.6202C15.9407 10.271 14.6866 10.0127 13.7309 10.0127C11.7476 10.0127 11.408 11.7234 11.408 12.9266V20H7.17215V6.6547Z" fill="#0A66C2"/>
<path d="M0.399544 6.65472H4.63541V20H0.399544V6.65472Z" fill="#0A66C2"/>
</svg>
