<svg width="31" height="30" viewBox="0 0 31 30" fill="none" xmlns="http://www.w3.org/2000/svg">
<path fill-rule="evenodd" clip-rule="evenodd" d="M4.82177 3.29888C4.79987 3.2907 4.7753 3.29984 4.76405 3.32032C4.75279 3.34081 4.75828 3.36645 4.77692 3.38055L14.0707 10.405C14.0875 10.4178 14.1108 10.4177 14.1276 10.405C14.1444 10.3922 14.1506 10.3698 14.1429 10.3502L12.4951 6.1788C12.4902 6.16639 12.4802 6.15665 12.4677 6.15198L4.82177 3.29888ZM8.22515 19.4472C8.21628 19.4336 8.20104 19.4255 8.18481 19.4259L3.8157 19.5106C3.80103 19.5109 3.78734 19.518 3.77866 19.5298C3.76998 19.5416 3.76731 19.5568 3.77143 19.5709L5.29685 24.7781C5.30408 24.8027 5.32975 24.817 5.35453 24.8102L10.6935 23.3413C10.708 23.3373 10.7197 23.3266 10.725 23.3126C10.7304 23.2985 10.7287 23.2828 10.7204 23.2702L8.22515 19.4472ZM23.0642 19.4259C23.048 19.4255 23.0328 19.4336 23.0239 19.4472L20.5286 23.2702C20.5204 23.2828 20.5187 23.2985 20.524 23.3126C20.5293 23.3266 20.541 23.3373 20.5555 23.3413L25.8945 24.8102C25.9193 24.817 25.9449 24.8028 25.9522 24.7781L27.487 19.571C27.4912 19.5569 27.4885 19.5417 27.4798 19.5298C27.4711 19.518 27.4574 19.5109 27.4428 19.5106L23.0642 19.4259ZM26.4624 3.38078C26.4812 3.3668 26.4869 3.34109 26.4757 3.32049C26.4645 3.29989 26.4398 3.29068 26.4178 3.29888L18.7813 6.15199C18.7692 6.15652 18.7594 6.16586 18.7544 6.17779L17.0218 10.2832C17.0136 10.3028 17.0194 10.3255 17.0361 10.3386C17.0528 10.3517 17.0762 10.352 17.0933 10.3394L26.4624 3.38078Z" fill="#EFEFEF"/>
<path fill-rule="evenodd" clip-rule="evenodd" d="M17.2198 9.70141C17.2061 9.68917 17.1865 9.68603 17.1697 9.69337C17.1528 9.7007 17.1418 9.71716 17.1414 9.73554L17.019 15.4982C17.0187 15.5113 17.0238 15.5238 17.0331 15.5329C17.0425 15.542 17.0551 15.5469 17.0681 15.5463L22.36 15.3109C22.377 15.3101 22.3922 15.3003 22.3999 15.2851C22.4076 15.27 22.4065 15.2519 22.3971 15.2378L20.9 12.9873C20.8977 12.984 20.8951 12.9809 20.8921 12.9782L17.2198 9.70141ZM14.0528 9.80089C14.0522 9.78266 14.0411 9.76642 14.0244 9.7592C14.0076 9.75199 13.9882 9.75511 13.9746 9.7672L10.3493 12.9781C10.3462 12.9809 10.3435 12.984 10.3413 12.9874L8.85351 15.2379C8.84416 15.252 8.84314 15.2701 8.85083 15.2852C8.85853 15.3003 8.87376 15.3101 8.8907 15.3109L14.192 15.5463C14.2051 15.5469 14.2179 15.542 14.2272 15.5327C14.2365 15.5235 14.2416 15.5108 14.2412 15.4977L14.0528 9.80089ZM11.144 19.5582C11.1306 19.5477 11.1126 19.5453 11.0969 19.5518C11.0812 19.5584 11.0702 19.5729 11.0682 19.5898L10.6351 23.2904C10.6331 23.3075 10.6406 23.3243 10.6546 23.3343C10.6687 23.3442 10.687 23.3457 10.7025 23.3382L13.8852 21.7845C13.8998 21.7774 13.9097 21.7632 13.9114 21.7471C13.9131 21.7309 13.9063 21.7151 13.8935 21.7051L11.144 19.5582ZM20.1731 19.5897C20.171 19.5728 20.1601 19.5584 20.1444 19.5518C20.1287 19.5453 20.1107 19.5477 20.0973 19.5582L17.3478 21.7051C17.335 21.7151 17.3283 21.731 17.33 21.7471C17.3317 21.7633 17.3416 21.7774 17.3562 21.7845L20.5483 23.3382C20.5638 23.3457 20.5821 23.3442 20.5962 23.3342C20.6102 23.3242 20.6177 23.3074 20.6156 23.2903L20.1731 19.5897Z" fill="#EFEFEF"/>
<path fill-rule="evenodd" clip-rule="evenodd" d="M17.3974 21.7001C17.3819 21.6925 17.3635 21.694 17.3494 21.7041C17.3354 21.7141 17.3279 21.731 17.33 21.7481L17.5838 23.8255L17.5557 24.6976C17.5552 24.714 17.5632 24.7294 17.5769 24.7384C17.5906 24.7474 17.6081 24.7487 17.6229 24.7416L20.589 23.3386C20.6054 23.3309 20.6158 23.3144 20.6159 23.2963C20.616 23.2782 20.6057 23.2617 20.5895 23.2537L17.3974 21.7001ZM13.9113 21.7477C13.9132 21.7306 13.9057 21.7138 13.8917 21.7039C13.8776 21.694 13.8593 21.6925 13.8439 21.7001L10.6612 23.2538C10.6449 23.2617 10.6347 23.2783 10.6348 23.2964C10.6349 23.3145 10.6454 23.3309 10.6617 23.3386L13.6278 24.7416C13.6426 24.7486 13.6599 24.7475 13.6736 24.7386C13.6873 24.7297 13.6954 24.7144 13.695 24.6981L13.6763 23.8255L13.9113 21.7477Z" fill="#F4F4F4"/>
<path d="M13.6944 18.2204L11.0391 17.4389L12.9129 16.582L13.6944 18.2204ZM17.5457 18.2204L18.3272 16.582L20.2104 17.4389L17.5457 18.2204Z" fill="#233447" stroke="#233447" stroke-linecap="round" stroke-linejoin="round"/>
<path fill-rule="evenodd" clip-rule="evenodd" d="M8.89406 15.2168C8.87471 15.216 8.85681 15.2271 8.84894 15.2448C8.84108 15.2625 8.84485 15.2832 8.85846 15.297L11.0054 17.4721C11.0192 17.4861 11.0404 17.49 11.0584 17.4819L12.8993 16.6442L13.6516 18.2406C13.6604 18.2591 13.68 18.2699 13.7003 18.2672C13.7206 18.2646 13.7368 18.2492 13.7405 18.2291L14.2396 15.5078C14.242 15.4944 14.2386 15.4806 14.2301 15.47C14.2216 15.4593 14.209 15.4529 14.1954 15.4522L8.89406 15.2168ZM22.3907 15.2969C22.4043 15.2831 22.408 15.2624 22.4001 15.2447C22.3923 15.227 22.3744 15.216 22.355 15.2168L17.0631 15.4522C17.0496 15.4529 17.0369 15.4593 17.0284 15.4699C17.02 15.4805 17.0165 15.4943 17.0189 15.5076L17.5085 18.2289C17.5122 18.249 17.5283 18.2645 17.5486 18.2672C17.5689 18.2699 17.5886 18.2593 17.5974 18.2408L18.359 16.6441L20.2002 17.4819C20.2182 17.4901 20.2394 17.4861 20.2532 17.472L22.3907 15.2969ZM11.1798 19.4784C11.1814 19.4649 11.177 19.4512 11.1678 19.4411C11.1585 19.431 11.1453 19.4255 11.1317 19.4259L8.1844 19.5106C8.16728 19.5111 8.15178 19.5208 8.14392 19.5361C8.13606 19.5513 8.13709 19.5696 8.14659 19.5838L10.6419 23.322C10.6528 23.3384 10.6728 23.3463 10.692 23.3417C10.7112 23.3371 10.7255 23.321 10.7278 23.3014L11.1798 19.4784ZM20.1174 19.4259C20.1037 19.4255 20.0906 19.431 20.0813 19.4411C20.0721 19.4512 20.0677 19.4649 20.0693 19.4784L20.5213 23.3014C20.5236 23.321 20.5379 23.3371 20.5571 23.3417C20.5762 23.3463 20.5963 23.3384 20.6072 23.322L23.1025 19.5838C23.112 19.5696 23.113 19.5513 23.1052 19.5361C23.0973 19.5208 23.0818 19.5111 23.0647 19.5106L20.1174 19.4259Z" fill="#D6D6D6"/>
<path fill-rule="evenodd" clip-rule="evenodd" d="M22.3998 15.2854C22.4105 15.2647 22.4044 15.2394 22.3855 15.2257C22.3667 15.2121 22.3407 15.2143 22.3244 15.2309L20.1869 17.406C20.1787 17.4143 20.1739 17.4253 20.1734 17.437L20.0793 19.5933C20.0783 19.6154 20.0928 19.6352 20.1142 19.6408C20.1356 19.6465 20.158 19.6365 20.1682 19.6169L22.3998 15.2854ZM8.9263 15.2308C8.90997 15.2143 8.88401 15.2121 8.86519 15.2257C8.84636 15.2394 8.84029 15.2647 8.8509 15.2854L11.0731 19.6168C11.0832 19.6364 11.1055 19.6464 11.1269 19.6409C11.1482 19.6353 11.1628 19.6157 11.1621 19.5937L11.0867 17.4374C11.0863 17.4256 11.0815 17.4144 11.0732 17.4059L8.9263 15.2308ZM14.2406 15.4921C14.2371 15.4694 14.2177 15.4525 14.1948 15.4522C14.1718 15.4519 14.1519 15.4682 14.1478 15.4908L13.6487 18.2121C13.6477 18.2178 13.6477 18.2238 13.6488 18.2295L14.2703 21.4404C14.2748 21.464 14.2963 21.4803 14.3202 21.4784C14.3441 21.4765 14.3628 21.457 14.3636 21.4331L14.5048 17.2052C14.5049 17.2023 14.5047 17.1993 14.5043 17.1964L14.2406 15.4921ZM17.1124 15.4909C17.1083 15.4683 17.0884 15.4519 17.0654 15.4522C17.0423 15.4525 17.0229 15.4695 17.0195 15.4923L16.7652 17.1872C16.7648 17.1899 16.7647 17.1927 16.7647 17.1955L16.8777 21.4327C16.8784 21.4567 16.897 21.4764 16.9209 21.4784C16.9448 21.4804 16.9664 21.4641 16.971 21.4406L17.6019 18.2296C17.603 18.2239 17.6031 18.218 17.602 18.2122L17.1124 15.4909Z" fill="#B9B9B9"/>
<path fill-rule="evenodd" clip-rule="evenodd" d="M20.2671 17.4407C20.2678 17.4256 20.2611 17.411 20.2491 17.4016C20.2371 17.3923 20.2214 17.3892 20.2068 17.3935L17.542 18.175C17.5252 18.18 17.5125 18.1939 17.5091 18.2112L16.8782 21.4221C16.8746 21.4405 16.8822 21.4593 16.8977 21.4699L17.3497 21.7807C17.3666 21.7923 17.3891 21.7916 17.4053 21.779L20.1549 19.6321C20.1657 19.6236 20.1723 19.6108 20.1729 19.597L20.2671 17.4407ZM11.0526 17.3935C11.038 17.3892 11.0224 17.3922 11.0104 17.4015C10.9985 17.4108 10.9917 17.4252 10.9922 17.4403L11.0675 19.5966C11.068 19.6105 11.0747 19.6235 11.0856 19.6321L13.8352 21.779C13.8513 21.7916 13.8739 21.7923 13.8908 21.7807L14.3428 21.4699C14.3582 21.4593 14.3659 21.4406 14.3623 21.4222L13.7409 18.2113C13.7375 18.194 13.7248 18.18 13.7079 18.1751L11.0526 17.3935Z" fill="white"/>
<path fill-rule="evenodd" clip-rule="evenodd" d="M10.702 23.2536C10.6805 23.2434 10.6548 23.2508 10.6421 23.271C10.6293 23.2911 10.6336 23.3175 10.652 23.3325L11.6878 24.18L11.6908 24.1822L13.7906 25.6417C13.7985 25.6472 13.8078 25.6502 13.8174 25.6502H17.4238C17.4334 25.6502 17.4428 25.6472 17.4506 25.6418L19.5599 24.1823L19.5629 24.18L20.5987 23.3325C20.6171 23.3175 20.6214 23.2911 20.6086 23.271C20.5959 23.2508 20.5702 23.2434 20.5487 23.2536L17.6523 24.6236L17.6781 23.8249C17.6785 23.8109 17.6727 23.7974 17.6621 23.7881L17.4267 23.5809C17.4181 23.5734 17.407 23.5692 17.3956 23.5692H13.8457C13.8336 23.5692 13.8219 23.5739 13.8131 23.5822L13.5966 23.7894C13.587 23.7985 13.5818 23.8112 13.582 23.8244L13.5992 24.624L10.702 23.2536Z" fill="white"/>
<path fill-rule="evenodd" clip-rule="evenodd" d="M14.3165 21.3838C14.307 21.3838 14.2977 21.3867 14.2898 21.3921L13.8378 21.7028C13.8266 21.7105 13.8193 21.7228 13.8177 21.7363L13.5823 23.8173C13.5801 23.837 13.5904 23.856 13.6082 23.8648C13.626 23.8736 13.6473 23.8703 13.6617 23.8566L13.8646 23.6625H17.3778L17.5999 23.8579C17.6146 23.8708 17.6357 23.8733 17.653 23.8642C17.6702 23.8551 17.6801 23.8363 17.6777 23.8169L17.4235 21.7359C17.4219 21.7225 17.4146 21.7105 17.4034 21.7028L16.9515 21.3921C16.9436 21.3867 16.9343 21.3838 16.9248 21.3838H14.3165Z" fill="#161616"/>
<path fill-rule="evenodd" clip-rule="evenodd" d="M4.83385 3.30517C4.82172 3.29618 4.80602 3.29354 4.79162 3.29808C4.77722 3.30263 4.76587 3.3138 4.76111 3.32813L3.57467 6.89686C3.57205 6.90475 3.57156 6.91319 3.57326 6.92132L4.36749 10.7336L3.88322 11.0923C3.87133 11.1012 3.86427 11.115 3.86417 11.1298C3.86407 11.1446 3.87093 11.1586 3.8827 11.1676L4.58767 11.7051L4.06104 12.1195C4.05017 12.1281 4.04361 12.141 4.04311 12.1548C4.0426 12.1686 4.0482 12.182 4.05842 12.1913L4.76887 12.8396L4.34513 13.1447C4.33446 13.1524 4.32749 13.1642 4.3259 13.1772C4.32432 13.1903 4.32827 13.2034 4.3368 13.2134L5.41966 14.4846C5.4317 14.4987 5.45091 14.5045 5.46872 14.4993L10.3934 13.0586C10.3997 13.0568 10.4056 13.0536 10.4106 13.0494L13.8946 10.1021C13.9056 10.0928 13.9117 10.079 13.9112 10.0646C13.9108 10.0503 13.9038 10.0369 13.8922 10.0283L4.83385 3.30517ZM26.4794 3.32802C26.4746 3.31372 26.4633 3.30259 26.4489 3.29806C26.4345 3.29354 26.4188 3.29619 26.4067 3.30517L17.3483 10.0283C17.3368 10.0369 17.3298 10.0503 17.3294 10.0646C17.3289 10.079 17.335 10.0928 17.346 10.1021L20.83 13.0494C20.835 13.0536 20.8409 13.0568 20.8472 13.0586L25.7719 14.4993C25.7896 14.5045 25.8087 14.4988 25.8208 14.4848L26.9131 13.2136C26.9217 13.2036 26.9257 13.1904 26.9241 13.1773C26.9225 13.1642 26.9156 13.1524 26.9049 13.1447L26.4811 12.8396L27.1916 12.1913C27.2018 12.1819 27.2074 12.1685 27.2069 12.1546C27.2063 12.1407 27.1996 12.1278 27.1887 12.1193L26.6533 11.7048L27.3579 11.1676C27.3696 11.1587 27.3764 11.1448 27.3764 11.1301C27.3764 11.1153 27.3694 11.1015 27.3577 11.0926L26.8824 10.7339L27.6767 6.92132C27.6784 6.91315 27.6779 6.90467 27.6753 6.89676L26.4794 3.32802Z" fill="#696969"/>
<path fill-rule="evenodd" clip-rule="evenodd" d="M12.4513 6.14844C12.4359 6.14844 12.4215 6.15594 12.4127 6.16853C12.4039 6.18112 12.4018 6.19722 12.407 6.21166L13.8171 10.0753L14.1463 15.5016L14.1463 15.5018L14.2592 17.2141L14.2686 21.431C14.2686 21.457 14.2897 21.478 14.3157 21.478H16.924C16.9499 21.478 16.9709 21.4571 16.971 21.4311L16.9899 17.2143L17.1122 15.5021L17.1122 15.5014L17.4225 10.0753L18.8514 6.21185C18.8567 6.1974 18.8546 6.18125 18.8458 6.16861C18.837 6.15597 18.8226 6.14844 18.8072 6.14844H12.4513ZM10.419 13.0388C10.4299 13.0223 10.4293 13.0008 10.4176 12.9849C10.4059 12.969 10.3854 12.9621 10.3665 12.9677L5.44181 14.4083C5.42682 14.4127 5.41498 14.4243 5.4102 14.4391L3.77178 19.5427C3.76719 19.557 3.76971 19.5727 3.77857 19.5848C3.78743 19.597 3.80157 19.6042 3.81661 19.6042H8.18573L11.1136 19.6418C11.1301 19.6421 11.1455 19.6336 11.1542 19.6196C11.1629 19.6055 11.1636 19.588 11.1561 19.5733L8.9464 15.2663L10.419 13.0388ZM20.8731 12.9677C20.8542 12.9621 20.8337 12.969 20.822 12.9849C20.8103 13.0009 20.8098 13.0224 20.8207 13.0389L22.3026 15.2664L20.0836 19.5732C20.076 19.5879 20.0767 19.6055 20.0854 19.6195C20.0941 19.6336 20.1095 19.6421 20.1261 19.6418L23.0633 19.6042H27.4418C27.4569 19.6042 27.4711 19.597 27.4799 19.5848C27.4888 19.5726 27.4913 19.5569 27.4866 19.5426L25.8294 14.439C25.8246 14.4242 25.8128 14.4127 25.7978 14.4083L20.8731 12.9677Z" fill="white"/>
</svg>
