<svg width="25" height="26" viewBox="0 0 25 26" fill="none" xmlns="http://www.w3.org/2000/svg">
<path fill-rule="evenodd" clip-rule="evenodd" d="M13.1702 0.515317C16.2526 0.666808 19.1249 1.93792 21.3187 4.13317C23.6587 6.47467 24.9467 9.58715 24.9455 12.8971C24.9427 19.7276 19.3821 25.2852 12.5512 25.2852C9.98249 25.2852 7.94121 24.4959 6.62316 23.7773L0.0527344 25.5L1.81113 19.0805C0.726496 17.2018 0.155765 15.0708 0.156659 12.8873C0.159402 6.05703 5.71949 0.5 12.5511 0.5L13.1702 0.515317ZM6.92754 21.5346L7.30378 21.7578C8.88545 22.6959 10.6985 23.1923 12.547 23.193H12.5512C18.2292 23.193 22.8505 18.5739 22.8528 12.8964C22.8538 10.1452 21.7833 7.55823 19.8384 5.61203C17.8933 3.6657 15.3069 2.59323 12.5553 2.59233C6.87293 2.59233 2.25158 7.21097 2.24932 12.888C2.24854 14.8336 2.79315 16.7284 3.82437 18.3677L4.06931 18.7573L3.02861 22.5569L6.92754 21.5346ZM18.7953 15.843C18.718 15.7138 18.5115 15.6364 18.2018 15.4814C17.8921 15.3265 16.3696 14.5777 16.0857 14.4743C15.8018 14.3711 15.5953 14.3195 15.3889 14.6293C15.1825 14.9391 14.589 15.6364 14.4083 15.843C14.2277 16.0496 14.047 16.0754 13.7374 15.9205C13.4277 15.7656 12.4298 15.4386 11.2469 14.3841C10.3262 13.5633 9.70469 12.5497 9.52403 12.2398C9.34343 11.93 9.50477 11.7624 9.65979 11.6081C9.79914 11.4694 9.96955 11.2465 10.1244 11.0658C10.2792 10.8851 10.3308 10.7559 10.4341 10.5494C10.5373 10.3428 10.4857 10.1621 10.4083 10.0071C10.3308 9.85212 9.71149 8.3285 9.45343 7.70871C9.20199 7.10519 8.94668 7.18689 8.7566 7.17736C8.57617 7.16842 8.36951 7.16645 8.16309 7.16645C7.95661 7.16645 7.6211 7.24387 7.33723 7.55382C7.05335 7.86366 6.25331 8.61259 6.25331 10.1361C6.25331 11.6598 7.36304 13.1315 7.51789 13.3381C7.67274 13.5448 9.70165 16.6712 12.8083 18.0121C13.5472 18.331 14.124 18.5214 14.5738 18.6641C15.3157 18.8997 15.9908 18.8665 16.5244 18.7868C17.1194 18.6979 18.3567 18.0379 18.6147 17.315C18.8728 16.5918 18.8728 15.9721 18.7953 15.843Z" fill="url(#paint0_linear_293_4056)"/>
<defs>
<linearGradient id="paint0_linear_293_4056" x1="0.0527346" y1="25.5" x2="26.7901" y2="-1.46838" gradientUnits="userSpaceOnUse">
<stop stop-color="#00C222"/>
<stop offset="1" stop-color="#24F049"/>
</linearGradient>
</defs>
</svg>
