<svg width="20" height="20" viewBox="0 0 20 20" fill="none" xmlns="http://www.w3.org/2000/svg">
<g clip-path="url(#clip0_270_3982)">
<path d="M8.81857 17.1078C8.02934 17.876 6.96942 18.3025 5.86811 18.2951C4.76681 18.2877 3.7127 17.847 2.93383 17.0684C2.15497 16.2898 1.71398 15.2358 1.70629 14.1345C1.6986 13.0332 2.12482 11.9731 2.89274 11.1837L6.44441 7.6295L5.26524 6.45117L1.71441 10.0053C0.6163 11.104 -0.000390527 12.5939 1.85542e-07 14.1472C0.000390898 15.7006 0.617831 17.1901 1.71649 18.2883C2.81515 19.3864 4.30503 20.0031 5.85838 20.0027C7.41173 20.0023 8.9013 19.3848 9.99941 18.2862L13.5511 14.7345L12.3727 13.5562L8.81857 17.1078Z" fill="#94A3B8"/>
<path d="M18.2859 1.71752C17.7436 1.17153 17.0984 0.738586 16.3876 0.443767C15.6768 0.148948 14.9146 -0.00188038 14.1451 2.0534e-05C13.3759 -0.00202257 12.6141 0.148419 11.9034 0.442647C11.1928 0.736874 10.5476 1.16905 10.0051 1.71419L6.44922 5.26669L7.62755 6.44585L11.1817 2.89419C11.5697 2.50389 12.0312 2.19444 12.5396 1.98374C13.048 1.77303 13.5931 1.66527 14.1434 1.66669C14.9719 1.66696 15.7818 1.91288 16.4706 2.37335C17.1594 2.83383 17.6963 3.48818 18.0132 4.2537C18.3302 5.01922 18.4131 5.86154 18.2515 6.67417C18.0898 7.4868 17.6909 8.23326 17.1051 8.81919L13.5534 12.3709L14.7326 13.55L18.2842 10C19.3809 8.90093 19.997 7.41177 19.9973 5.85912C19.9976 4.30646 19.3821 2.81705 18.2859 1.71752Z" fill="#94A3B8"/>
<path d="M12.3695 6.45182L6.44922 12.3721L7.62773 13.5506L13.548 7.63033L12.3695 6.45182Z" fill="#94A3B8"/>
</g>
<defs>
<clipPath id="clip0_270_3982">
<rect width="20" height="20" fill="white"/>
</clipPath>
</defs>
</svg>
