<svg width="20" height="20" viewBox="0 0 20 20" fill="none" xmlns="http://www.w3.org/2000/svg">
<g clip-path="url(#clip0_270_3980)">
<path d="M12.5992 13.9208L11.4208 12.7425L14.17 9.99333L11.4208 7.2575L12.5992 6.07917L15.3483 8.8275C15.6617 9.14 15.8342 9.55667 15.8342 9.99917C15.8342 10.4417 15.6617 10.8583 15.3483 11.1717L12.5992 13.9208ZM8.57917 12.7425L5.83 10.0067L8.57917 7.25833L7.40083 6.08L4.65167 8.82833C4.33833 9.14083 4.16583 9.5575 4.16583 10.0008C4.16583 10.4442 4.33833 10.86 4.65167 11.1725L7.40083 13.9217L8.57917 12.7425ZM20 2.5C20 1.12167 18.8783 0 17.5 0H2.5C1.12167 0 0 1.12167 0 2.5V20H20V2.5ZM1.66667 2.5C1.66667 2.04083 2.04 1.66667 2.5 1.66667H17.5C17.96 1.66667 18.3333 2.04083 18.3333 2.5V18.3333H1.66667V2.5Z" fill="#94A3B8"/>
</g>
<defs>
<clipPath id="clip0_270_3980">
<rect width="20" height="20" fill="white"/>
</clipPath>
</defs>
</svg>
