<svg xmlns="http://www.w3.org/2000/svg" width="20" height="21" viewBox="0 0 20 21" fill="none">
<g clip-path="url(#clip0_287_4284)">
<path d="M5.71568 19.7852H17.8585C18.6475 19.7852 19.2871 19.1456 19.2871 18.3566V6.21373C19.2871 5.42474 18.6475 4.78516 17.8585 4.78516H5.71568C4.9267 4.78516 4.28711 5.42474 4.28711 6.21373V18.3566C4.28711 19.1456 4.9267 19.7852 5.71568 19.7852Z" fill="#000B26" fill-opacity="0.1"/>
<path d="M5.71568 19.7852H17.8585C18.6475 19.7852 19.2871 19.1456 19.2871 18.3566V6.21373C19.2871 5.42474 18.6475 4.78516 17.8585 4.78516H5.71568C4.9267 4.78516 4.28711 5.42474 4.28711 6.21373V18.3566C4.28711 19.1456 4.9267 19.7852 5.71568 19.7852Z" stroke="#08122A" stroke-width="1.5" stroke-linecap="round" stroke-linejoin="round"/>
<path d="M0.714844 15.4996V2.64244C0.714844 2.26355 0.865354 1.9002 1.13326 1.63229C1.40117 1.36438 1.76453 1.21387 2.14342 1.21387H15.0006" stroke="#08122A" stroke-width="1.5" stroke-linecap="round" stroke-linejoin="round"/>
</g>
<defs>
<clipPath id="clip0_287_4284">
<rect width="20" height="20" fill="white" transform="translate(0 0.5)"/>
</clipPath>
</defs>
</svg>