<svg width="36" height="28" viewBox="0 0 36 28" fill="none" xmlns="http://www.w3.org/2000/svg">
<path d="M30.1987 2.80903C27.9551 1.77962 25.5493 1.02118 23.0338 0.586782C22.988 0.578401 22.9422 0.599353 22.9187 0.641256C22.6093 1.19158 22.2666 1.90952 22.0265 2.47381C19.321 2.06875 16.6293 2.06875 13.9793 2.47381C13.7392 1.89695 13.384 1.19158 13.0732 0.641256C13.0497 0.60075 13.0039 0.579798 12.9581 0.586782C10.444 1.01978 8.03814 1.77822 5.79323 2.80903C5.77381 2.81741 5.75716 2.83138 5.74606 2.84954C1.1827 9.66714 -0.067403 16.3171 0.545855 22.8847C0.54863 22.9168 0.566667 22.9476 0.591641 22.9671C3.60243 25.1782 6.51888 26.5205 9.38121 27.4102C9.42699 27.4242 9.47555 27.4074 9.50469 27.3697C10.1818 26.4451 10.7853 25.4701 11.3028 24.4449C11.3334 24.3848 11.3042 24.3136 11.2418 24.2899C10.2844 23.9267 9.37288 23.4839 8.49601 22.9811C8.42663 22.9406 8.42108 22.8414 8.48491 22.7939C8.66944 22.6557 8.85397 22.5118 9.03018 22.3665C9.06209 22.34 9.10649 22.3344 9.14395 22.3512C14.9047 24.9813 21.1413 24.9813 26.8341 22.3512C26.8715 22.333 26.9159 22.3386 26.9492 22.3651C27.1254 22.5104 27.31 22.6557 27.4959 22.7939C27.5597 22.8414 27.5556 22.9406 27.4862 22.9811C26.6093 23.4937 25.6977 23.9267 24.739 24.2885C24.6766 24.3122 24.6488 24.3848 24.6793 24.4449C25.208 25.4687 25.8115 26.4437 26.4761 27.3683C26.5039 27.4074 26.5538 27.4242 26.5996 27.4102C29.4758 26.5205 32.3922 25.1782 35.403 22.9671C35.4294 22.9476 35.446 22.9182 35.4488 22.8861C36.1828 15.2933 34.2195 8.69779 30.2445 2.85094C30.2347 2.83138 30.2181 2.81741 30.1987 2.80903ZM12.1631 18.8858C10.4287 18.8858 8.99965 17.2935 8.99965 15.338C8.99965 13.3825 10.401 11.7902 12.1631 11.7902C13.939 11.7902 15.3542 13.3965 15.3265 15.338C15.3265 17.2935 13.9251 18.8858 12.1631 18.8858ZM23.8594 18.8858C22.125 18.8858 20.6959 17.2935 20.6959 15.338C20.6959 13.3825 22.0973 11.7902 23.8594 11.7902C25.6353 11.7902 27.0505 13.3965 27.0228 15.338C27.0228 17.2935 25.6353 18.8858 23.8594 18.8858Z" fill="#08122A"/>
<path d="M30.1987 2.80903C27.9551 1.77962 25.5493 1.02118 23.0338 0.586782C22.988 0.578401 22.9422 0.599353 22.9187 0.641256C22.6093 1.19158 22.2666 1.90952 22.0265 2.47381C19.321 2.06875 16.6293 2.06875 13.9793 2.47381C13.7392 1.89695 13.384 1.19158 13.0732 0.641256C13.0497 0.60075 13.0039 0.579798 12.9581 0.586782C10.444 1.01978 8.03814 1.77822 5.79323 2.80903C5.77381 2.81741 5.75716 2.83138 5.74606 2.84954C1.1827 9.66714 -0.067403 16.3171 0.545855 22.8847C0.54863 22.9168 0.566667 22.9476 0.591641 22.9671C3.60243 25.1782 6.51888 26.5205 9.38121 27.4102C9.42699 27.4242 9.47555 27.4074 9.50469 27.3697C10.1818 26.4451 10.7853 25.4701 11.3028 24.4449C11.3334 24.3848 11.3042 24.3136 11.2418 24.2899C10.2844 23.9267 9.37288 23.4839 8.49601 22.9811C8.42663 22.9406 8.42108 22.8414 8.48491 22.7939C8.66944 22.6557 8.85397 22.5118 9.03018 22.3665C9.06209 22.34 9.10649 22.3344 9.14395 22.3512C14.9047 24.9813 21.1413 24.9813 26.8341 22.3512C26.8715 22.333 26.9159 22.3386 26.9492 22.3651C27.1254 22.5104 27.31 22.6557 27.4959 22.7939C27.5597 22.8414 27.5556 22.9406 27.4862 22.9811C26.6093 23.4937 25.6977 23.9267 24.739 24.2885C24.6766 24.3122 24.6488 24.3848 24.6793 24.4449C25.208 25.4687 25.8115 26.4437 26.4761 27.3683C26.5039 27.4074 26.5538 27.4242 26.5996 27.4102C29.4758 26.5205 32.3922 25.1782 35.403 22.9671C35.4294 22.9476 35.446 22.9182 35.4488 22.8861C36.1828 15.2933 34.2195 8.69779 30.2445 2.85094C30.2347 2.83138 30.2181 2.81741 30.1987 2.80903ZM12.1631 18.8858C10.4287 18.8858 8.99965 17.2935 8.99965 15.338C8.99965 13.3825 10.401 11.7902 12.1631 11.7902C13.939 11.7902 15.3542 13.3965 15.3265 15.338C15.3265 17.2935 13.9251 18.8858 12.1631 18.8858ZM23.8594 18.8858C22.125 18.8858 20.6959 17.2935 20.6959 15.338C20.6959 13.3825 22.0973 11.7902 23.8594 11.7902C25.6353 11.7902 27.0505 13.3965 27.0228 15.338C27.0228 17.2935 25.6353 18.8858 23.8594 18.8858Z" fill="#5865F2"/>
</svg>
