<svg width="20" height="20" viewBox="0 0 20 20" fill="none" xmlns="http://www.w3.org/2000/svg">
<g clip-path="url(#clip0_270_3978)">
<path d="M10 0C8.02219 0 6.08879 0.58649 4.4443 1.6853C2.79981 2.78412 1.51809 4.3459 0.761209 6.17317C0.00433286 8.00043 -0.193701 10.0111 0.192152 11.9509C0.578004 13.8907 1.53041 15.6725 2.92894 17.0711C4.32746 18.4696 6.10929 19.422 8.0491 19.8079C9.98891 20.1937 11.9996 19.9957 13.8268 19.2388C15.6541 18.4819 17.2159 17.2002 18.3147 15.5557C19.4135 13.9112 20 11.9778 20 10C19.9971 7.34872 18.9426 4.80684 17.0679 2.9321C15.1932 1.05736 12.6513 0.00286757 10 0ZM10 18.3333C8.35183 18.3333 6.74066 17.8446 5.37025 16.9289C3.99984 16.0132 2.93174 14.7117 2.30101 13.189C1.67028 11.6663 1.50525 9.99076 1.82679 8.37425C2.14834 6.75774 2.94201 5.27288 4.10745 4.10744C5.27289 2.94201 6.75774 2.14833 8.37425 1.82679C9.99076 1.50525 11.6663 1.67027 13.189 2.301C14.7118 2.93173 16.0132 3.99984 16.9289 5.37025C17.8446 6.74066 18.3333 8.35182 18.3333 10C18.3309 12.2094 17.4522 14.3276 15.8899 15.8899C14.3276 17.4522 12.2094 18.3309 10 18.3333ZM5.83334 7.91667C5.83334 7.66944 5.90665 7.42777 6.044 7.2222C6.18135 7.01664 6.37658 6.85643 6.60498 6.76182C6.83339 6.66721 7.08472 6.64245 7.3272 6.69069C7.56968 6.73892 7.79241 6.85797 7.96722 7.03278C8.14204 7.2076 8.26109 7.43033 8.30932 7.6728C8.35755 7.91528 8.3328 8.16661 8.23819 8.39502C8.14358 8.62343 7.98336 8.81865 7.7778 8.956C7.57224 9.09336 7.33056 9.16667 7.08334 9.16667C6.75182 9.16667 6.43387 9.03497 6.19945 8.80055C5.96503 8.56613 5.83334 8.24819 5.83334 7.91667ZM11.6667 7.91667C11.6667 7.66944 11.74 7.42777 11.8773 7.2222C12.0147 7.01664 12.2099 6.85643 12.4383 6.76182C12.6667 6.66721 12.9181 6.64245 13.1605 6.69069C13.403 6.73892 13.6257 6.85797 13.8006 7.03278C13.9754 7.2076 14.0944 7.43033 14.1427 7.6728C14.1909 7.91528 14.1661 8.16661 14.0715 8.39502C13.9769 8.62343 13.8167 8.81865 13.6111 8.956C13.4056 9.09336 13.1639 9.16667 12.9167 9.16667C12.5852 9.16667 12.2672 9.03497 12.0328 8.80055C11.7984 8.56613 11.6667 8.24819 11.6667 7.91667ZM9.99417 12.5C11.6934 12.4565 13.3783 12.176 15 11.6667C14.4875 13.5667 12.78 15.8333 10 15.8333C7.22 15.8333 5.50667 13.5667 4.99417 11.6667C6.61381 12.1763 8.29679 12.4568 9.99417 12.5Z" fill="#94A3B8"/>
</g>
<defs>
<clipPath id="clip0_270_3978">
<rect width="20" height="20" fill="white"/>
</clipPath>
</defs>
</svg>
