<svg width="34" height="34" viewBox="0 0 34 34" fill="none" xmlns="http://www.w3.org/2000/svg">
<path d="M17.0008 0.199219C12.4381 0.199219 11.8655 0.21917 10.0735 0.300723C8.285 0.382627 7.06419 0.665788 5.99598 1.08125C4.89102 1.51037 3.95371 2.0844 3.0199 3.01858C2.08539 3.95242 1.51138 4.88976 1.08088 5.9944C0.664373 7.063 0.38087 8.2842 0.30037 10.0721C0.220219 11.8641 0.199219 12.4371 0.199219 16.9999C0.199219 21.5627 0.219519 22.1336 0.30072 23.9256C0.382971 25.7142 0.666124 26.9351 1.08123 28.0033C1.51068 29.1083 2.08469 30.0456 3.01885 30.9795C3.95231 31.914 4.88962 32.4894 5.99388 32.9185C7.06279 33.334 8.28395 33.6172 10.0721 33.6991C11.8641 33.7806 12.4364 33.8006 16.9987 33.8006C21.5617 33.8006 22.1325 33.7806 23.9246 33.6991C25.7131 33.6172 26.9353 33.334 28.0042 32.9185C29.1088 32.4894 30.0447 31.914 30.9782 30.9795C31.9127 30.0456 32.4867 29.1083 32.9172 28.0036C33.3302 26.9351 33.6137 25.7139 33.6977 23.926C33.7782 22.1339 33.7992 21.5627 33.7992 16.9999C33.7992 12.4371 33.7782 11.8645 33.6977 10.0724C33.6137 8.28385 33.3302 7.063 32.9172 5.99475C32.4867 4.88976 31.9127 3.95242 30.9782 3.01858C30.0437 2.08405 29.1092 1.51002 28.0032 1.08125C26.9321 0.665788 25.7106 0.382627 23.9221 0.300723C22.1301 0.21917 21.5596 0.199219 16.9955 0.199219H17.0008ZM15.4937 3.22684C15.941 3.22614 16.4401 3.22684 17.0008 3.22684C21.4864 3.22684 22.0181 3.24294 23.7895 3.32345C25.4275 3.39835 26.3165 3.67206 26.9087 3.90202C27.6927 4.20653 28.2517 4.57055 28.8393 5.15857C29.4273 5.74659 29.7913 6.30662 30.0965 7.09065C30.3265 7.68217 30.6005 8.57121 30.6751 10.2093C30.7556 11.9803 30.7731 12.5124 30.7731 16.996C30.7731 21.4797 30.7556 22.0118 30.6751 23.7828C30.6002 25.4209 30.3265 26.3099 30.0965 26.9015C29.792 27.6855 29.4273 28.2438 28.8393 28.8314C28.2513 29.4195 27.6931 29.7835 26.9087 30.088C26.3172 30.319 25.4275 30.592 23.7895 30.6669C22.0184 30.7474 21.4864 30.7649 17.0008 30.7649C12.5148 30.7649 11.9831 30.7474 10.2121 30.6669C8.57411 30.5913 7.6851 30.3176 7.09254 30.0876C6.30853 29.7831 5.74853 29.4191 5.16052 28.8311C4.57251 28.2431 4.20851 27.6844 3.90331 26.9001C3.67335 26.3085 3.3993 25.4195 3.32475 23.7814C3.24425 22.0104 3.22815 21.4783 3.22815 16.9918C3.22815 12.5054 3.24425 11.9761 3.32475 10.2051C3.39965 8.56701 3.67335 7.67797 3.90331 7.08575C4.20781 6.30172 4.57251 5.74169 5.16052 5.15367C5.74853 4.56565 6.30853 4.20163 7.09254 3.89642C7.68475 3.66541 8.57411 3.3924 10.2121 3.31715C11.7619 3.24714 12.3625 3.22614 15.4937 3.22264V3.22684ZM25.9686 6.01645C24.8556 6.01645 23.9526 6.91844 23.9526 8.03184C23.9526 9.14488 24.8556 10.0479 25.9686 10.0479C27.0816 10.0479 27.9846 9.14488 27.9846 8.03184C27.9846 6.91879 27.0816 6.01575 25.9686 6.01575V6.01645ZM17.0008 8.37205C12.2362 8.37205 8.3732 12.2352 8.3732 16.9999C8.3732 21.7646 12.2362 25.626 17.0008 25.626C21.7654 25.626 25.627 21.7646 25.627 16.9999C25.627 12.2352 21.765 8.37205 17.0004 8.37205H17.0008ZM17.0008 11.3997C20.0934 11.3997 22.6009 13.9068 22.6009 16.9999C22.6009 20.0926 20.0934 22.6001 17.0008 22.6001C13.9078 22.6001 11.4007 20.0926 11.4007 16.9999C11.4007 13.9068 13.9078 11.3997 17.0008 11.3997Z" fill="#08122A"/>
<path d="M17.0008 0.199219C12.4381 0.199219 11.8655 0.21917 10.0735 0.300723C8.285 0.382627 7.06419 0.665788 5.99598 1.08125C4.89102 1.51037 3.95371 2.0844 3.0199 3.01858C2.08539 3.95242 1.51138 4.88976 1.08088 5.9944C0.664373 7.063 0.38087 8.2842 0.30037 10.0721C0.220219 11.8641 0.199219 12.4371 0.199219 16.9999C0.199219 21.5627 0.219519 22.1336 0.30072 23.9256C0.382971 25.7142 0.666124 26.9351 1.08123 28.0033C1.51068 29.1083 2.08469 30.0456 3.01885 30.9795C3.95231 31.914 4.88962 32.4894 5.99388 32.9185C7.06279 33.334 8.28395 33.6172 10.0721 33.6991C11.8641 33.7806 12.4364 33.8006 16.9987 33.8006C21.5617 33.8006 22.1325 33.7806 23.9246 33.6991C25.7131 33.6172 26.9353 33.334 28.0042 32.9185C29.1088 32.4894 30.0447 31.914 30.9782 30.9795C31.9127 30.0456 32.4867 29.1083 32.9172 28.0036C33.3302 26.9351 33.6137 25.7139 33.6977 23.926C33.7782 22.1339 33.7992 21.5627 33.7992 16.9999C33.7992 12.4371 33.7782 11.8645 33.6977 10.0724C33.6137 8.28385 33.3302 7.063 32.9172 5.99475C32.4867 4.88976 31.9127 3.95242 30.9782 3.01858C30.0437 2.08405 29.1092 1.51002 28.0032 1.08125C26.9321 0.665788 25.7106 0.382627 23.9221 0.300723C22.1301 0.21917 21.5596 0.199219 16.9955 0.199219H17.0008ZM15.4937 3.22684C15.941 3.22614 16.4401 3.22684 17.0008 3.22684C21.4864 3.22684 22.0181 3.24294 23.7895 3.32345C25.4275 3.39835 26.3165 3.67206 26.9087 3.90202C27.6927 4.20653 28.2517 4.57055 28.8393 5.15857C29.4273 5.74659 29.7913 6.30662 30.0965 7.09065C30.3265 7.68217 30.6005 8.57121 30.6751 10.2093C30.7556 11.9803 30.7731 12.5124 30.7731 16.996C30.7731 21.4797 30.7556 22.0118 30.6751 23.7828C30.6002 25.4209 30.3265 26.3099 30.0965 26.9015C29.792 27.6855 29.4273 28.2438 28.8393 28.8314C28.2513 29.4195 27.6931 29.7835 26.9087 30.088C26.3172 30.319 25.4275 30.592 23.7895 30.6669C22.0184 30.7474 21.4864 30.7649 17.0008 30.7649C12.5148 30.7649 11.9831 30.7474 10.2121 30.6669C8.57411 30.5913 7.6851 30.3176 7.09254 30.0876C6.30853 29.7831 5.74853 29.4191 5.16052 28.8311C4.57251 28.2431 4.20851 27.6844 3.90331 26.9001C3.67335 26.3085 3.3993 25.4195 3.32475 23.7814C3.24425 22.0104 3.22815 21.4783 3.22815 16.9918C3.22815 12.5054 3.24425 11.9761 3.32475 10.2051C3.39965 8.56701 3.67335 7.67797 3.90331 7.08575C4.20781 6.30172 4.57251 5.74169 5.16052 5.15367C5.74853 4.56565 6.30853 4.20163 7.09254 3.89642C7.68475 3.66541 8.57411 3.3924 10.2121 3.31715C11.7619 3.24714 12.3625 3.22614 15.4937 3.22264V3.22684ZM25.9686 6.01645C24.8556 6.01645 23.9526 6.91844 23.9526 8.03184C23.9526 9.14488 24.8556 10.0479 25.9686 10.0479C27.0816 10.0479 27.9846 9.14488 27.9846 8.03184C27.9846 6.91879 27.0816 6.01575 25.9686 6.01575V6.01645ZM17.0008 8.37205C12.2362 8.37205 8.3732 12.2352 8.3732 16.9999C8.3732 21.7646 12.2362 25.626 17.0008 25.626C21.7654 25.626 25.627 21.7646 25.627 16.9999C25.627 12.2352 21.765 8.37205 17.0004 8.37205H17.0008ZM17.0008 11.3997C20.0934 11.3997 22.6009 13.9068 22.6009 16.9999C22.6009 20.0926 20.0934 22.6001 17.0008 22.6001C13.9078 22.6001 11.4007 20.0926 11.4007 16.9999C11.4007 13.9068 13.9078 11.3997 17.0008 11.3997Z" fill="url(#paint0_radial_265_3530)"/>
<path d="M17.0008 0.199219C12.4381 0.199219 11.8655 0.21917 10.0735 0.300723C8.285 0.382627 7.06419 0.665788 5.99598 1.08125C4.89102 1.51037 3.95371 2.0844 3.0199 3.01858C2.08539 3.95242 1.51138 4.88976 1.08088 5.9944C0.664373 7.063 0.38087 8.2842 0.30037 10.0721C0.220219 11.8641 0.199219 12.4371 0.199219 16.9999C0.199219 21.5627 0.219519 22.1336 0.30072 23.9256C0.382971 25.7142 0.666124 26.9351 1.08123 28.0033C1.51068 29.1083 2.08469 30.0456 3.01885 30.9795C3.95231 31.914 4.88962 32.4894 5.99388 32.9185C7.06279 33.334 8.28395 33.6172 10.0721 33.6991C11.8641 33.7806 12.4364 33.8006 16.9987 33.8006C21.5617 33.8006 22.1325 33.7806 23.9246 33.6991C25.7131 33.6172 26.9353 33.334 28.0042 32.9185C29.1088 32.4894 30.0447 31.914 30.9782 30.9795C31.9127 30.0456 32.4867 29.1083 32.9172 28.0036C33.3302 26.9351 33.6137 25.7139 33.6977 23.926C33.7782 22.1339 33.7992 21.5627 33.7992 16.9999C33.7992 12.4371 33.7782 11.8645 33.6977 10.0724C33.6137 8.28385 33.3302 7.063 32.9172 5.99475C32.4867 4.88976 31.9127 3.95242 30.9782 3.01858C30.0437 2.08405 29.1092 1.51002 28.0032 1.08125C26.9321 0.665788 25.7106 0.382627 23.9221 0.300723C22.1301 0.21917 21.5596 0.199219 16.9955 0.199219H17.0008ZM15.4937 3.22684C15.941 3.22614 16.4401 3.22684 17.0008 3.22684C21.4864 3.22684 22.0181 3.24294 23.7895 3.32345C25.4275 3.39835 26.3165 3.67206 26.9087 3.90202C27.6927 4.20653 28.2517 4.57055 28.8393 5.15857C29.4273 5.74659 29.7913 6.30662 30.0965 7.09065C30.3265 7.68217 30.6005 8.57121 30.6751 10.2093C30.7556 11.9803 30.7731 12.5124 30.7731 16.996C30.7731 21.4797 30.7556 22.0118 30.6751 23.7828C30.6002 25.4209 30.3265 26.3099 30.0965 26.9015C29.792 27.6855 29.4273 28.2438 28.8393 28.8314C28.2513 29.4195 27.6931 29.7835 26.9087 30.088C26.3172 30.319 25.4275 30.592 23.7895 30.6669C22.0184 30.7474 21.4864 30.7649 17.0008 30.7649C12.5148 30.7649 11.9831 30.7474 10.2121 30.6669C8.57411 30.5913 7.6851 30.3176 7.09254 30.0876C6.30853 29.7831 5.74853 29.4191 5.16052 28.8311C4.57251 28.2431 4.20851 27.6844 3.90331 26.9001C3.67335 26.3085 3.3993 25.4195 3.32475 23.7814C3.24425 22.0104 3.22815 21.4783 3.22815 16.9918C3.22815 12.5054 3.24425 11.9761 3.32475 10.2051C3.39965 8.56701 3.67335 7.67797 3.90331 7.08575C4.20781 6.30172 4.57251 5.74169 5.16052 5.15367C5.74853 4.56565 6.30853 4.20163 7.09254 3.89642C7.68475 3.66541 8.57411 3.3924 10.2121 3.31715C11.7619 3.24714 12.3625 3.22614 15.4937 3.22264V3.22684ZM25.9686 6.01645C24.8556 6.01645 23.9526 6.91844 23.9526 8.03184C23.9526 9.14488 24.8556 10.0479 25.9686 10.0479C27.0816 10.0479 27.9846 9.14488 27.9846 8.03184C27.9846 6.91879 27.0816 6.01575 25.9686 6.01575V6.01645ZM17.0008 8.37205C12.2362 8.37205 8.3732 12.2352 8.3732 16.9999C8.3732 21.7646 12.2362 25.626 17.0008 25.626C21.7654 25.626 25.627 21.7646 25.627 16.9999C25.627 12.2352 21.765 8.37205 17.0004 8.37205H17.0008ZM17.0008 11.3997C20.0934 11.3997 22.6009 13.9068 22.6009 16.9999C22.6009 20.0926 20.0934 22.6001 17.0008 22.6001C13.9078 22.6001 11.4007 20.0926 11.4007 16.9999C11.4007 13.9068 13.9078 11.3997 17.0008 11.3997Z" fill="url(#paint1_radial_265_3530)"/>
<defs>
<radialGradient id="paint0_radial_265_3530" cx="0" cy="0" r="1" gradientUnits="userSpaceOnUse" gradientTransform="translate(9.12426 36.3886) rotate(-90) scale(33.3014 30.9717)">
<stop stop-color="#FFDD55"/>
<stop offset="0.1" stop-color="#FFDD55"/>
<stop offset="0.5" stop-color="#FF543E"/>
<stop offset="1" stop-color="#C837AB"/>
</radialGradient>
<radialGradient id="paint1_radial_265_3530" cx="0" cy="0" r="1" gradientUnits="userSpaceOnUse" gradientTransform="translate(-5.42896 2.6198) rotate(78.6811) scale(14.8859 61.3578)">
<stop stop-color="#3771C8"/>
<stop offset="0.128" stop-color="#3771C8"/>
<stop offset="1" stop-color="#6600FF" stop-opacity="0"/>
</radialGradient>
</defs>
</svg>
