<svg width="40" height="22" viewBox="0 0 40 22" fill="none" xmlns="http://www.w3.org/2000/svg">
<path d="M22.4606 10.9997C22.4606 17.0219 17.6119 21.9041 11.6305 21.9041C5.64914 21.9041 0.800781 17.0234 0.800781 10.9997C0.800781 4.97606 5.64951 0.0957031 11.6305 0.0957031C17.6115 0.0957031 22.4606 4.97753 22.4606 10.9997ZM34.3414 10.9997C34.3414 16.6689 31.9168 21.2642 28.9263 21.2642C25.9358 21.2642 23.5113 16.6674 23.5113 10.9997C23.5113 5.33203 25.9358 0.735213 28.9263 0.735213C31.9168 0.735213 34.3414 5.33203 34.3414 10.9997ZM39.2008 10.9997C39.2008 16.079 38.348 20.1963 37.2962 20.1963C36.2445 20.1963 35.3917 16.0776 35.3917 10.9997C35.3917 5.9219 36.2445 1.80315 37.2966 1.80315C38.3487 1.80315 39.2008 5.92079 39.2008 10.9997Z" fill="#08122A"/>
</svg>
