<svg width="34" height="30" viewBox="0 0 34 30" fill="none" xmlns="http://www.w3.org/2000/svg">
<path d="M31.5307 1.09552L1.76778 12.5751C-0.263584 13.3902 -0.251536 14.5232 1.39752 15.0284L8.82049 17.3453L11.6607 26.0531C12.006 27.0062 11.8358 27.3842 12.8366 27.3842C13.6089 27.3842 13.9516 27.032 14.3817 26.6118C14.6553 26.3441 16.2795 24.765 18.093 23.0018L25.8143 28.7066C27.2351 29.4905 28.261 29.0844 28.6148 27.387L33.6832 3.50268C34.2021 1.42223 32.8901 0.478558 31.5307 1.09552ZM9.98544 16.813L26.7168 6.257C27.5521 5.75046 28.3179 6.02279 27.6891 6.58095L13.3627 19.507L12.8049 25.4567L9.98544 16.813Z" fill="#08122A"/>
<path d="M31.5307 1.09552L1.76778 12.5751C-0.263584 13.3902 -0.251536 14.5232 1.39752 15.0284L8.82049 17.3453L11.6607 26.0531C12.006 27.0062 11.8358 27.3842 12.8366 27.3842C13.6089 27.3842 13.9516 27.032 14.3817 26.6118C14.6553 26.3441 16.2795 24.765 18.093 23.0018L25.8143 28.7066C27.2351 29.4905 28.261 29.0844 28.6148 27.387L33.6832 3.50268C34.2021 1.42223 32.8901 0.478558 31.5307 1.09552ZM9.98544 16.813L26.7168 6.257C27.5521 5.75046 28.3179 6.02279 27.6891 6.58095L13.3627 19.507L12.8049 25.4567L9.98544 16.813Z" fill="url(#paint0_linear_265_3528)"/>
<defs>
<linearGradient id="paint0_linear_265_3528" x1="22.6003" y1="5.60698" x2="16.4062" y2="22.838" gradientUnits="userSpaceOnUse">
<stop stop-color="#37AEE2"/>
<stop offset="1" stop-color="#1E96C8"/>
</linearGradient>
</defs>
</svg>
