<svg width="20" height="20" viewBox="0 0 20 20" fill="none" xmlns="http://www.w3.org/2000/svg">
<g clip-path="url(#clip0_270_3987)">
<path d="M1.66667 16.6667H10V18.3333H0V2.5C0 1.12167 1.12167 0 2.5 0H15.8333C17.2117 0 18.3333 1.12167 18.3333 2.5V10H16.6667V2.5C16.6667 2.04 16.2925 1.66667 15.8333 1.66667H2.5C2.04083 1.66667 1.66667 2.04 1.66667 2.5V10.9433L5.23333 7.37667C6.14917 6.46167 7.63833 6.46 8.55417 7.37667L13.3325 12.1558V13.3342H12.1542L7.37583 8.55583C7.11 8.29083 6.6775 8.29083 6.41167 8.55583L1.66667 13.3008V16.6667ZM12.5 2.91667C13.8783 2.91667 15 4.03833 15 5.41667C15 6.795 13.8783 7.91667 12.5 7.91667C11.1217 7.91667 10 6.795 10 5.41667C10 4.03833 11.1217 2.91667 12.5 2.91667ZM12.5 4.58333C12.0408 4.58333 11.6667 4.95667 11.6667 5.41667C11.6667 5.87667 12.0408 6.25 12.5 6.25C12.9592 6.25 13.3333 5.87667 13.3333 5.41667C13.3333 4.95667 12.9592 4.58333 12.5 4.58333ZM20 15H16.6667V11.6667H15V15H11.6667V16.6667H15V20H16.6667V16.6667H20V15Z" fill="#94A3B8"/>
</g>
<defs>
<clipPath id="clip0_270_3987">
<rect width="20" height="20" fill="white"/>
</clipPath>
</defs>
</svg>
