<svg width="36" height="37" viewBox="0 0 36 37" fill="none" xmlns="http://www.w3.org/2000/svg">
<path d="M7.00021 26.32C5.42516 24.1143 4.50638 21.4186 4.50638 18.504C4.50638 11.0468 10.5528 5.00756 17.9993 5.00756C20.9131 5.00756 23.6082 5.93533 25.8133 7.50203L29.0333 4.2811C25.9883 1.90916 22.1556 0.5 17.9993 0.5C8.05899 0.5 0 8.56109 0 18.504C0 22.6614 1.40879 26.495 3.78011 29.5409L7.00021 26.32Z" fill="#08122A"/>
<path d="M28.9999 10.6799C30.575 12.8856 31.4938 15.5813 31.4938 18.4959C31.4938 25.9531 25.4473 31.9923 18.0009 31.9923C15.087 31.9923 12.392 31.0646 10.1869 29.4979L6.9668 32.7188C10.0119 35.0907 13.8445 36.4999 18.0009 36.4999C27.9412 36.4999 36.0001 28.4388 36.0001 18.4959C36.0001 14.3385 34.5913 10.5049 32.22 7.45898L28.9999 10.6799Z" fill="#08122A"/>
</svg>
