<svg width="40" height="40" viewBox="0 0 40 40" fill="none" xmlns="http://www.w3.org/2000/svg">
<rect width="40" height="40" rx="8" fill="#F1F5F9"/>
<path d="M20.0009 11.5176C17.6972 11.5176 17.4081 11.5277 16.5033 11.5688C15.6002 11.6102 14.9838 11.7532 14.4444 11.9629C13.8865 12.1796 13.4133 12.4694 12.9418 12.9411C12.4699 13.4126 12.1801 13.8859 11.9627 14.4437C11.7524 14.9832 11.6093 15.5998 11.5687 16.5025C11.5282 17.4074 11.5176 17.6967 11.5176 20.0005C11.5176 22.3043 11.5278 22.5925 11.5688 23.4974C11.6104 24.4005 11.7533 25.0169 11.9629 25.5563C12.1798 26.1142 12.4696 26.5875 12.9412 27.059C13.4126 27.5308 13.8858 27.8214 14.4434 28.038C14.9831 28.2478 15.5997 28.3908 16.5026 28.4321C17.4074 28.4733 17.6963 28.4834 19.9999 28.4834C22.3038 28.4834 22.592 28.4733 23.4969 28.4321C24.3999 28.3908 25.017 28.2478 25.5567 28.038C26.1145 27.8214 26.587 27.5308 27.0583 27.059C27.5302 26.5875 27.82 26.1142 28.0374 25.5564C28.2459 25.0169 28.389 24.4003 28.4315 23.4976C28.4721 22.5927 28.4827 22.3043 28.4827 20.0005C28.4827 17.6967 28.4721 17.4075 28.4315 16.5027C28.389 15.5996 28.2459 14.9832 28.0374 14.4438C27.82 13.8859 27.5302 13.4126 27.0583 12.9411C26.5865 12.4693 26.1146 12.1794 25.5562 11.9629C25.0154 11.7532 24.3987 11.6102 23.4956 11.5688C22.5908 11.5277 22.3027 11.5176 19.9983 11.5176H20.0009ZM19.24 13.0463C19.4658 13.0459 19.7178 13.0463 20.0009 13.0463C22.2658 13.0463 22.5342 13.0544 23.4286 13.095C24.2557 13.1329 24.7046 13.2711 25.0036 13.3872C25.3994 13.5409 25.6817 13.7247 25.9784 14.0216C26.2753 14.3185 26.4591 14.6013 26.6132 14.9972C26.7293 15.2958 26.8676 15.7447 26.9053 16.5718C26.9459 17.466 26.9548 17.7347 26.9548 19.9985C26.9548 22.2624 26.9459 22.531 26.9053 23.4253C26.8675 24.2524 26.7293 24.7013 26.6132 24.9999C26.4594 25.3958 26.2753 25.6777 25.9784 25.9744C25.6815 26.2713 25.3996 26.4551 25.0036 26.6088C24.7049 26.7255 24.2557 26.8633 23.4286 26.9012C22.5344 26.9418 22.2658 26.9506 20.0009 26.9506C17.7359 26.9506 17.4675 26.9418 16.5732 26.9012C15.7462 26.863 15.2973 26.7248 14.9981 26.6087C14.6023 26.4549 14.3195 26.2711 14.0226 25.9742C13.7257 25.6773 13.5419 25.3953 13.3878 24.9992C13.2717 24.7005 13.1333 24.2517 13.0957 23.4246C13.0551 22.5303 13.0469 22.2617 13.0469 19.9964C13.0469 17.7311 13.0551 17.4639 13.0957 16.5697C13.1335 15.7426 13.2717 15.2937 13.3878 14.9947C13.5416 14.5988 13.7257 14.3161 14.0226 14.0192C14.3195 13.7223 14.6023 13.5385 14.9981 13.3843C15.2971 13.2677 15.7462 13.1299 16.5732 13.0919C17.3558 13.0565 17.659 13.0459 19.24 13.0441V13.0463ZM24.5289 14.4548C23.9669 14.4548 23.511 14.9102 23.511 15.4724C23.511 16.0344 23.9669 16.4903 24.5289 16.4903C25.0909 16.4903 25.5468 16.0344 25.5468 15.4724C25.5468 14.9104 25.0909 14.4544 24.5289 14.4544V14.4548ZM20.0009 15.6442C17.5952 15.6442 15.6447 17.5947 15.6447 20.0005C15.6447 22.4063 17.5952 24.3559 20.0009 24.3559C22.4067 24.3559 24.3564 22.4063 24.3564 20.0005C24.3564 17.5947 22.4065 15.6442 20.0008 15.6442H20.0009ZM20.0009 17.1729C21.5625 17.1729 22.8285 18.4387 22.8285 20.0005C22.8285 21.562 21.5625 22.8281 20.0009 22.8281C18.4392 22.8281 17.1734 21.562 17.1734 20.0005C17.1734 18.4387 18.4392 17.1729 20.0009 17.1729Z" fill="#08122A"/>
</svg>
