<svg width="40" height="40" viewBox="0 0 40 40" fill="none" xmlns="http://www.w3.org/2000/svg">
<rect width="40" height="40" rx="8" fill="#F1F5F9"/>
<path d="M13.8731 15.8469C14.9573 15.8469 15.8361 14.968 15.8361 13.8839C15.8361 12.7998 14.9573 11.9209 13.8731 11.9209C12.789 11.9209 11.9102 12.7998 11.9102 13.8839C11.9102 14.968 12.789 15.8469 13.8731 15.8469Z" fill="#08122A"/>
<path d="M17.6339 17.2976H20.8872V18.7879C20.8872 18.7879 21.77 17.0223 24.1721 17.0223C26.3148 17.0223 28.0898 18.0778 28.0898 21.2953V28.0799H24.7185V22.1174C24.7185 20.2194 23.7052 20.0107 22.9331 20.0107C21.3306 20.0107 21.0563 21.3929 21.0563 22.365V28.0799H17.6339V17.2976Z" fill="#08122A"/>
<path d="M12.162 17.2976H15.5843V28.0799H12.162V17.2976Z" fill="#08122A"/>
</svg>
