<svg width="40" height="40" viewBox="0 0 40 40" fill="none" xmlns="http://www.w3.org/2000/svg">
<rect width="40" height="40" rx="8" fill="#F1F5F9"/>
<path fill-rule="evenodd" clip-rule="evenodd" d="M20.4947 10.7867C22.7694 10.8985 24.889 11.8365 26.5079 13.4565C28.2348 15.1845 29.1853 17.4814 29.1844 19.924C29.1823 24.9646 25.0788 29.0659 20.0379 29.0659C18.1422 29.0659 16.6359 28.4835 15.6632 27.9532L10.8145 29.2244L12.1121 24.4871C11.3117 23.1007 10.8905 21.5281 10.8911 19.9168C10.8932 14.8763 14.9963 10.7754 20.0378 10.7754L20.4947 10.7867ZM15.8878 26.2982L16.1655 26.4628C17.3327 27.1551 18.6706 27.5214 20.0348 27.522H20.0378C24.228 27.522 27.6383 24.1132 27.64 19.9235C27.6408 17.8932 26.8508 15.9841 25.4155 14.5479C23.9801 13.1116 22.0714 12.3201 20.0409 12.3195C15.8475 12.3195 12.4371 15.7278 12.4354 19.9173C12.4349 21.3531 12.8368 22.7513 13.5978 23.9611L13.7785 24.2486L13.0105 27.0525L15.8878 26.2982ZM24.6458 22.0979C24.5887 22.0026 24.4363 21.9455 24.2078 21.8311C23.9793 21.7168 22.8557 21.1642 22.6462 21.0879C22.4367 21.0117 22.2843 20.9737 22.132 21.2023C21.9796 21.4309 21.5417 21.9455 21.4083 22.0979C21.275 22.2504 21.1417 22.2695 20.9132 22.1551C20.6847 22.0408 19.9483 21.7995 19.0753 21.0213C18.3959 20.4156 17.9372 19.6676 17.8039 19.4389C17.6706 19.2103 17.7897 19.0866 17.9041 18.9727C18.0069 18.8704 18.1327 18.7059 18.247 18.5725C18.3612 18.4392 18.3993 18.3438 18.4755 18.1915C18.5517 18.039 18.5136 17.9056 18.4564 17.7913C18.3993 17.6769 17.9423 16.5525 17.7518 16.0951C17.5663 15.6498 17.3779 15.7101 17.2376 15.703C17.1044 15.6964 16.9519 15.695 16.7996 15.695C16.6472 15.695 16.3996 15.7521 16.1901 15.9808C15.9806 16.2095 15.3902 16.7622 15.3902 17.8865C15.3902 19.0109 16.2092 20.097 16.3235 20.2495C16.4377 20.402 17.935 22.7091 20.2276 23.6986C20.7728 23.934 21.1985 24.0745 21.5304 24.1798C22.0779 24.3537 22.5761 24.3292 22.9699 24.2703C23.409 24.2048 24.3221 23.7177 24.5125 23.1842C24.7029 22.6505 24.703 22.1932 24.6458 22.0979Z" fill="#08122A"/>
</svg>
